<svg xmlns="http://www.w3.org/2000/svg" width="73.169" height="74.467" viewBox="0 0 73.169 74.467">
  <g id="Group_270" data-name="Group 270" transform="translate(0.3 0.301)">
    <path id="Path_787" data-name="Path 787" d="M50.895,13.016a1.319,1.319,0,0,0-1.319,1.319v2.01H39.869V6.638h2.008a1.319,1.319,0,0,0,0-2.638H19.325a1.319,1.319,0,1,0,0,2.638h2.008V25.612A9.279,9.279,0,0,0,30.6,34.882H49.576v2.007a1.319,1.319,0,1,0,2.637,0V14.335A1.319,1.319,0,0,0,50.895,13.016ZM30.6,32.244a6.639,6.639,0,0,1-6.631-6.632V6.638H37.232V17.663a1.319,1.319,0,0,0,1.319,1.319H49.576V32.244Z" transform="translate(-18.006 -4)" fill="#27646a" stroke="#27646a" stroke-width="0.6"/>
    <path id="Path_788" data-name="Path 788" d="M300.837,94.594h-2.008V75.618a9.279,9.279,0,0,0-9.268-9.268H270.585V64.343a1.319,1.319,0,1,0-2.637,0V86.9a1.319,1.319,0,1,0,2.637,0V84.888h9.707v9.706h-2.009a1.319,1.319,0,0,0,0,2.638h22.553a1.319,1.319,0,0,0,0-2.638ZM281.611,82.25H270.586V68.988H289.56a6.638,6.638,0,0,1,6.631,6.63V94.594H282.93V83.569A1.319,1.319,0,0,0,281.611,82.25Z" transform="translate(-229.586 -53.965)" fill="#27646a" stroke="#27646a" stroke-width="0.6"/>
    <path id="Path_789" data-name="Path 789" d="M357.646,312.71a1.319,1.319,0,0,0-1.085.569c-.838,1.212-8.183,11.981-8.183,16.647a9.268,9.268,0,0,0,18.536,0c0-4.667-7.345-15.435-8.183-16.647A1.319,1.319,0,0,0,357.646,312.71Zm0,23.847a6.638,6.638,0,0,1-6.631-6.63c0-2.565,3.71-9.076,6.631-13.534,2.921,4.456,6.63,10.967,6.63,13.534A6.638,6.638,0,0,1,357.646,336.557Z" transform="translate(-297.671 -265.328)" fill="#27646a" stroke="#27646a" stroke-width="0.6"/>
  </g>
</svg>
