<svg xmlns="http://www.w3.org/2000/svg" width="56.511" height="77.803" viewBox="0 0 56.511 77.803">
  <path id="Path_786" data-name="Path 786" d="M1901.919,17.078a1.212,1.212,0,0,0,1.212-1.212v-4.8a1.212,1.212,0,0,0-1.212-1.212h-4.3V7.212A1.212,1.212,0,0,0,1896.409,6h-9.982a1.212,1.212,0,0,0-1.212,1.212v2.64h-36.784a1.212,1.212,0,0,0-1.212,1.212v4.8a1.212,1.212,0,0,0,1.212,1.212h1.933V42.914h-1.933a1.212,1.212,0,0,0-1.212,1.212v4.8a1.212,1.212,0,0,0,1.212,1.212h1.933V75.976h-1.933a1.212,1.212,0,0,0-1.212,1.212h0v4.8a1.212,1.212,0,0,0,1.212,1.212h53.488a1.212,1.212,0,0,0,1.212-1.212v-4.8a1.212,1.212,0,0,0-1.212-1.212h-1.933V50.14h1.933a1.212,1.212,0,0,0,1.212-1.212v-4.8a1.212,1.212,0,0,0-1.212-1.212h-1.933V17.078Zm-14.281-8.655h7.559V9.852h-7.559Zm-38,3.852h51.064v2.38h-51.064Zm0,33.062h16.739a8.522,8.522,0,0,0-.623,2.38h-16.115Zm32.543,2.813a7.011,7.011,0,1,1-14.021,0,7.639,7.639,0,0,1,1.108-3.323,1.208,1.208,0,0,0,.139-.238,45.266,45.266,0,0,1,5.764-7.579c3.015,3.249,7.01,8.459,7.01,11.139Zm18.521,32.629h-51.064V78.4h51.064Zm-3.145-4.8h-44.775V50.14h13.169a9.43,9.43,0,0,0,18.437,0h13.169Zm3.145-28.26h-16.116a8.513,8.513,0,0,0-.618-2.38h16.737Zm-3.145-4.8h-14.8a50.3,50.3,0,0,0-6.724-8.51,1.246,1.246,0,0,0-1.727,0,50.307,50.307,0,0,0-6.724,8.51h-14.8V17.078h44.775Z" transform="translate(-1846.92 -5.699)" fill="#27646a" stroke="#27646a" stroke-width="0.6"/>
</svg>
