<svg xmlns="http://www.w3.org/2000/svg" width="81.296" height="76.729" viewBox="0 0 81.296 76.729">
  <path id="Path_793" data-name="Path 793" d="M795.935,54.154h-4.568V51.109a1.522,1.522,0,0,0-1.523-1.523H780.71a1.522,1.522,0,0,0-1.523,1.523v3.045H750.98a3.77,3.77,0,0,1-3.767-3.767V26.748h3.045a1.522,1.522,0,0,0,1.523-1.523V16.09a1.522,1.522,0,0,0-1.523-1.523h-3.045V10H719.808v4.568h-3.045a1.522,1.522,0,0,0-1.523,1.523v9.135a1.522,1.522,0,0,0,1.523,1.523h3.045V59.38A22.205,22.205,0,0,0,741.988,81.56h37.2v3.045a1.522,1.522,0,0,0,1.523,1.523h9.135a1.522,1.522,0,0,0,1.523-1.523V81.56h4.568ZM722.853,13.045h21.316v1.523H722.853ZM718.285,23.7v-6.09h30.451V23.7H718.285Zm23.7,54.812A19.157,19.157,0,0,1,722.853,59.38V26.748h21.316V50.387A6.82,6.82,0,0,0,750.98,57.2h28.207V78.515Zm46.334,4.568h-6.09V52.632h6.09V83.083Zm4.568-4.568h-1.523V57.2h1.523Z" transform="translate(-714.939 -9.699)" fill="#27646a" stroke="#27646a" stroke-width="0.6"/>
</svg>
