<svg xmlns="http://www.w3.org/2000/svg" width="80.903" height="77.496" viewBox="0 0 80.903 77.496">
  <path id="Path_785" data-name="Path 785" d="M2329.9,78.185h-8.413V53.622h8.413a1.2,1.2,0,0,0,0-2.4h-8.526a6.518,6.518,0,0,0-6.4-5.307h-5.845a6.516,6.516,0,0,0-6.448,5.633,18.772,18.772,0,0,0-2.693-1.882V44.537a5.107,5.107,0,0,0-.73-8.65V32.315a4.952,4.952,0,0,0-3.967-4.846V25.041h18.11a5.273,5.273,0,1,0,0-10.545h-7.668a1.2,1.2,0,1,0,0,2.4h7.668a2.87,2.87,0,1,1,0,5.739h-45.514a2.87,2.87,0,1,1,0-5.739h33.038a1.2,1.2,0,0,0,0-2.4h-5.635v-.85a4.647,4.647,0,0,0-9.293,0v.85h-18.111a5.273,5.273,0,0,0,0,10.545H2286v2.428a4.952,4.952,0,0,0-3.967,4.847v3.571a5.107,5.107,0,0,0-.731,8.65V49.65a18.643,18.643,0,0,0-2.162,1.461,6.519,6.519,0,0,0-6.376-5.2h-5.845a6.518,6.518,0,0,0-6.4,5.307H2252a1.2,1.2,0,0,0,0,2.4h8.413V78.186H2252a1.2,1.2,0,1,0,0,2.4h8.526a6.518,6.518,0,0,0,6.4,5.307h5.845a6.52,6.52,0,0,0,6.376-5.2,18.738,18.738,0,0,0,23.542-.434,6.517,6.517,0,0,0,6.448,5.632h5.845a6.517,6.517,0,0,0,6.4-5.307h8.526a1.2,1.2,0,0,0,0-2.4Zm-41.5-64.539a2.244,2.244,0,0,1,4.488,0v.85H2288.4Zm4.488,11.4v2.33H2288.4v-2.33Zm-5.914,4.733h7.34a2.544,2.544,0,0,1,2.541,2.541v3.012h-12.421V32.315A2.544,2.544,0,0,1,2286.974,29.774Zm-2.623,7.956h12.586a2.708,2.708,0,1,1,0,5.416h-12.586a2.708,2.708,0,0,1,0-5.416Zm-.648,7.777a5.016,5.016,0,0,0,.648.043h12.586a5.02,5.02,0,0,0,.648-.043V48.5a18.812,18.812,0,0,0-13.882-.015Zm-20.892,33.879V52.42a4.11,4.11,0,0,1,3.792-4.092V83.479A4.11,4.11,0,0,1,2262.811,79.386Zm10.264,4.093V76.968a1.2,1.2,0,0,0-2.4,0v6.524h-1.665V48.315h1.665V72.162a1.2,1.2,0,0,0,2.4,0V48.328a4.11,4.11,0,0,1,3.792,4.093V79.386A4.11,4.11,0,0,1,2273.075,83.479Zm17.57-1.24a16.194,16.194,0,0,1-11.374-4.612V54.18a16.311,16.311,0,0,1,3.689-2.7,1.229,1.229,0,0,0,.2-.107,16.367,16.367,0,0,1,19.459,3.424V77.014A16.345,16.345,0,0,1,2290.645,82.239Zm14.378-2.853V52.42a4.11,4.11,0,0,1,3.793-4.092V83.479A4.11,4.11,0,0,1,2305.023,79.386Zm6.2,4.105V48.315h1.665V83.492Zm4.068-.013V48.328a4.111,4.111,0,0,1,3.793,4.093V79.386A4.111,4.111,0,0,1,2315.287,83.479Z" transform="translate(-2250.495 -8.699)" fill="#27646a" stroke="#27646a" stroke-width="0.6"/>
</svg>
