<svg id="map-marker" xmlns="http://www.w3.org/2000/svg" width="14.973" height="19.691" viewBox="0 0 14.973 19.691">
  <path id="Path_42" data-name="Path 42" d="M85.869,2.193a7.483,7.483,0,0,0-10.586,0A7.213,7.213,0,0,0,73.09,7.486a6.155,6.155,0,0,0,.482,2.617l5.337,8.55a1.684,1.684,0,0,0,.68.76,1.891,1.891,0,0,0,1.974,0,1.774,1.774,0,0,0,.694-.76l5.322-8.55a6.152,6.152,0,0,0,.483-2.617A7.211,7.211,0,0,0,85.869,2.193Zm-2.647,7.939a3.742,3.742,0,0,1-5.293,0,3.607,3.607,0,0,1-1.1-2.647,3.606,3.606,0,0,1,1.1-2.646,3.741,3.741,0,0,1,5.293,0,3.606,3.606,0,0,1,1.1,2.646A3.607,3.607,0,0,1,83.222,10.133Z" transform="translate(-73.09 0)" fill="#fa7920"/>
</svg>
