<svg id="telephone-auricular-with-cable" xmlns="http://www.w3.org/2000/svg" width="22.596" height="22.596" viewBox="0 0 22.596 22.596">
  <path id="Path_39" data-name="Path 39" d="M11.3,0a11.3,11.3,0,0,0,0,22.6.7.7,0,1,0,0-1.392,9.905,9.905,0,1,1,9.9-9.9,6.419,6.419,0,0,1-2.953,5.5,4.269,4.269,0,0,1-2.047.526,3.272,3.272,0,0,0,1.1-1.059,1.431,1.431,0,0,0,.165-.248,11.255,11.255,0,0,0,.384-1.74c.168-.737-3.222-2.174-3.517-1.255a8.786,8.786,0,0,1-.484,1.7c-.19.252-.659.134-.952-.116-.773-.659-1.635-1.627-2.392-2.391h0l-.064-.063-.064-.064h0c-.765-.756-1.733-1.617-2.391-2.392-.249-.293-.369-.761-.116-.952a8.8,8.8,0,0,1,1.7-.483c.917-.294-.519-3.686-1.256-3.517a11.091,11.091,0,0,0-1.74.382,1.586,1.586,0,0,0-.248.166c-1.936,1.228-2.186,4.208-.3,6.427.72.849,1.471,1.671,2.245,2.474l0,0c.021.021.044.042.066.062s.041.043.061.066l0,0a21.3,21.3,0,0,0,3.3,2.943c3.253,2.173,5.749,1.566,7.22.76A7.8,7.8,0,0,0,22.6,11.3,11.311,11.311,0,0,0,11.3,0Z" fill="#fa7920"/>
</svg>
