<svg xmlns="http://www.w3.org/2000/svg" xmlns:xlink="http://www.w3.org/1999/xlink" width="19.08" height="14.992" viewBox="0 0 19.08 14.992">
  <defs>
    <clipPath id="clip-path">
      <rect width="19.081" height="14.992" fill="none"/>
    </clipPath>
  </defs>
  <g id="black-back-closed-envelope-shape" transform="translate(0 0)" clip-path="url(#clip-path)">
    <g id="black-back-closed-envelope-shape-2" data-name="black-back-closed-envelope-shape">
      <g id="Group_152" data-name="Group 152" transform="translate(0 0)">
        <path id="Path_1270" data-name="Path 1270" d="M33.736,329.354a1.631,1.631,0,0,0,1.116-.421l-5.406-5.406-.374.269q-.607.447-.985.7a6.068,6.068,0,0,1-1.006.511,3.067,3.067,0,0,1-1.171.261h-.021A3.066,3.066,0,0,1,24.717,325a6.048,6.048,0,0,1-1.006-.511q-.378-.25-.985-.7l-.373-.271-5.407,5.408a1.631,1.631,0,0,0,1.117.421Z" transform="translate(-16.359 -314.362)" fill="#fa7920"/>
        <path id="Path_1271" data-name="Path 1271" d="M1.076,199.481A5.645,5.645,0,0,1,0,198.555v8.225l4.765-4.765Q3.335,201.017,1.076,199.481Z" transform="translate(0 -193.721)" fill="#fa7920"/>
        <path id="Path_1272" data-name="Path 1272" d="M417.007,199.481q-2.175,1.472-3.7,2.536l4.763,4.763v-8.225A5.875,5.875,0,0,1,417.007,199.481Z" transform="translate(-398.991 -193.721)" fill="#fa7920"/>
        <path id="Path_1273" data-name="Path 1273" d="M17.383,59.013H1.71a1.52,1.52,0,0,0-1.262.554,2.148,2.148,0,0,0-.442,1.384A2.488,2.488,0,0,0,.592,62.4a5.282,5.282,0,0,0,1.246,1.23q.362.256,2.183,1.517c.655.454,1.225.85,1.715,1.192.417.291.777.543,1.075.752l.159.113.294.212q.346.25.575.4t.554.346A3.23,3.23,0,0,0,9,68.458a1.694,1.694,0,0,0,.532.1h.021a1.7,1.7,0,0,0,.532-.1,3.223,3.223,0,0,0,.612-.287q.325-.192.554-.346t.575-.4l.293-.211.159-.113,1.077-.749,3.906-2.712a5.064,5.064,0,0,0,1.3-1.31,2.817,2.817,0,0,0,.521-1.608,1.718,1.718,0,0,0-1.7-1.7Z" transform="translate(-0.006 -59.013)" fill="#fa7920"/>
      </g>
    </g>
  </g>
</svg>
