<svg xmlns="http://www.w3.org/2000/svg" width="67.336" height="75.385" viewBox="0 0 67.336 75.385">
  <g id="Group_227" data-name="Group 227" transform="translate(0)">
    <path id="Path_456" data-name="Path 456" d="M3313.34,15.816a33.926,33.926,0,0,1-6.515-1.478,1.788,1.788,0,0,0-1.136,3.39,37.492,37.492,0,0,0,7.2,1.636,6.031,6.031,0,0,1,5.192,6.72,150.934,150.934,0,0,1-3.434,18.825c-1.919,7.4-4.15,12.535-6.632,15.247a106.067,106.067,0,0,1-16.343,14,6.3,6.3,0,0,1-7.276,0,106.091,106.091,0,0,1-16.343-14c-2.483-2.713-4.714-7.843-6.632-15.247a150.984,150.984,0,0,1-3.435-18.824,6.032,6.032,0,0,1,5.192-6.72,36.152,36.152,0,0,0,21.9-11.023,4.088,4.088,0,0,1,5.913,0,36.258,36.258,0,0,0,10.082,7.474,1.788,1.788,0,0,0,1.6-3.2,32.7,32.7,0,0,1-9.091-6.74,7.663,7.663,0,0,0-11.092,0,32.614,32.614,0,0,1-19.758,9.941,9.614,9.614,0,0,0-8.292,10.7c1.017,8.345,4.123,28.562,10.978,36.053a109.67,109.67,0,0,0,16.914,14.5,9.882,9.882,0,0,0,11.408,0,109.664,109.664,0,0,0,16.914-14.5c6.855-7.49,9.961-27.708,10.978-36.053A9.613,9.613,0,0,0,3313.34,15.816Z" transform="translate(-3254.368 -3.5)" fill="#27646a"/>
    <path id="Path_457" data-name="Path 457" d="M3328.9,63.881a39.734,39.734,0,0,1-18.694,9.069,4.893,4.893,0,0,0-3.907,5.469,154.132,154.132,0,0,0,2.793,15.508c2.3,8.866,4.56,12.287,5.7,13.538,3.656,3.994,10.405,9.306,14.1,12.117a4.817,4.817,0,0,0,5.812,0c3.7-2.811,10.448-8.124,14.1-12.117,1.145-1.251,3.408-4.672,5.7-13.538a154.508,154.508,0,0,0,2.794-15.508,4.893,4.893,0,0,0-3.908-5.469,39.735,39.735,0,0,1-18.694-9.069A4.464,4.464,0,0,0,3328.9,63.881Zm22.159,29.149c-2.3,8.874-4.469,11.571-4.881,12.021-3.6,3.929-10.73,9.48-13.63,11.684a1.23,1.23,0,0,1-1.485,0c-2.9-2.2-10.033-7.754-13.629-11.684-.412-.45-2.582-3.144-4.882-12.021a151.017,151.017,0,0,1-2.711-15.094,1.315,1.315,0,0,1,1.043-1.476,43.262,43.262,0,0,0,20.356-9.876.872.872,0,0,1,1.132,0,43.26,43.26,0,0,0,20.355,9.876,1.316,1.316,0,0,1,1.044,1.476h0A150.772,150.772,0,0,1,3351.06,93.031Z" transform="translate(-3298.138 -53.53)" fill="#27646a"/>
    <path id="Path_458" data-name="Path 458" d="M3406.742,187.781l-8.382,8.3-5.26-4.281a5.208,5.208,0,0,0-3.633-1.087,4.224,4.224,0,0,0-2.909,1.776,4.6,4.6,0,0,0,.686,6.506l3.142,2.557a1.788,1.788,0,1,0,2.257-2.773l-3.142-2.557a1.021,1.021,0,0,1-.136-1.52.923.923,0,0,1,.615-.418,1.3,1.3,0,0,1,.863.287l6.507,5.295a1.785,1.785,0,0,0,2.386-.117l9.522-9.433a1.063,1.063,0,0,1,1.5,1.511l-11.335,11.229a1.019,1.019,0,0,1-1.426.076l-1.8-1.465a1.788,1.788,0,1,0-2.256,2.773l1.8,1.465a4.639,4.639,0,0,0,6.192-.3l11.341-11.236a4.639,4.639,0,1,0-6.529-6.591Z" transform="translate(-3364.997 -157.826)" fill="#27646a"/>
  </g>
</svg>
