<svg id="Group_232" data-name="Group 232" xmlns="http://www.w3.org/2000/svg" width="77.06" height="77.061" viewBox="0 0 77.06 77.061">
  <path id="Path_471" data-name="Path 471" d="M3848.473,216.607v-5.659h.92a1.547,1.547,0,0,0,1.546-1.546v-4.931a1.547,1.547,0,0,0-1.546-1.546H3834.6a1.547,1.547,0,0,0-1.546,1.546V209.4a1.547,1.547,0,0,0,1.546,1.546h.92v5.659a16.339,16.339,0,1,0,12.954,0Zm-15.529,12.833h.847a3.411,3.411,0,0,1,2.395.993l.81.808a6.435,6.435,0,0,0,4.58,1.9h.847a6.438,6.438,0,0,0,4.579-1.9l.812-.811a3.394,3.394,0,0,1,2.391-.991h.847a3.409,3.409,0,0,1,2.393.992l1.772,1.771a13.232,13.232,0,0,1-26.437,0l1.772-1.771A3.406,3.406,0,0,1,3832.944,229.44Zm18.1-3.091h-.847a6.438,6.438,0,0,0-4.579,1.9l-.812.811a3.4,3.4,0,0,1-2.392.991h-.847a3.411,3.411,0,0,1-2.395-.993l-.81-.807a6.429,6.429,0,0,0-4.578-1.9h-.846a6.4,6.4,0,0,0-3.5,1.056,13.231,13.231,0,0,1,8.142-8.289h0a1.552,1.552,0,0,0,1.029-1.458v-1.779h6.771v1.779a1.548,1.548,0,0,0,1.03,1.457,13.235,13.235,0,0,1,8.143,8.29A6.4,6.4,0,0,0,3851.048,226.348Zm-12.437-13.561v-1.84h6.771v1.84Zm-2.466-4.931v-1.84h11.7v1.84Z" transform="translate(-3825.657 -170.872)" fill="#27646a"/>
  <path id="Path_472" data-name="Path 472" d="M3869.076,400.11a4.011,4.011,0,1,0-4.011-4.011A4.016,4.016,0,0,0,3869.076,400.11Zm-.92-4.011a.92.92,0,1,1,.92.92A.921.921,0,0,1,3868.156,396.1Z" transform="translate(-3858.901 -330.447)" fill="#27646a"/>
  <path id="Path_473" data-name="Path 473" d="M3932.13,415.874a4.011,4.011,0,1,0-4.011-4.011A4.016,4.016,0,0,0,3932.13,415.874Zm-.92-4.011a.92.92,0,1,1,.92.92A.921.921,0,0,1,3931.21,411.862Z" transform="translate(-3912.093 -343.745)" fill="#27646a"/>
  <rect id="Rectangle_271" data-name="Rectangle 271" width="3.091" height="3.091" transform="translate(23.423 60.407)" fill="#27646a"/>
  <path id="Path_474" data-name="Path 474" d="M4067.383,160.566h-5.851v-3.386a1.547,1.547,0,0,0-1.546-1.546h-35.751a1.546,1.546,0,0,0-1.383,2.236l3.536,7.071v41.551a1.547,1.547,0,0,0,1.545,1.546h32.053a1.547,1.547,0,0,0,1.546-1.546V163.657h4.306v14.794h3.091V162.112A1.547,1.547,0,0,0,4067.383,160.566Zm-38.066,3.32-2.581-5.161h31.705v11.7h-28.962v-5.851A1.551,1.551,0,0,0,4029.317,163.887Zm.162,39.221h4.932v-3.091h-4.932v-1.84h7.4v-3.091h-7.4v-1.84h4.932v-3.091h-4.932v-1.84h7.4v-3.091h-7.4v-1.84h4.932v-3.091h-4.932v-1.84h7.4V175.36h-7.4v-1.84h28.962v31.427h-28.962Z" transform="translate(-3991.869 -130.979)" fill="#27646a"/>
  <path id="Path_475" data-name="Path 475" d="M4129.175,392.087a4.011,4.011,0,1,0,4.011,4.011A4.016,4.016,0,0,0,4129.175,392.087Zm.919,4.011a.92.92,0,1,1-.919-.92A.921.921,0,0,1,4130.094,396.1Z" transform="translate(-4078.317 -330.447)" fill="#27646a"/>
  <path id="Path_476" data-name="Path 476" d="M4177.7,329.033a5.244,5.244,0,1,0,5.244,5.244A5.25,5.25,0,0,0,4177.7,329.033Zm2.152,5.244a2.153,2.153,0,1,1-2.152-2.153A2.155,2.155,0,0,1,4179.851,334.277Z" transform="translate(-4118.21 -277.255)" fill="#27646a"/>
  <rect id="Rectangle_272" data-name="Rectangle 272" width="3.091" height="3.091" transform="translate(61.64 69.037)" fill="#27646a"/>
  <rect id="Rectangle_273" data-name="Rectangle 273" width="3.091" height="3.091" transform="translate(59.175 64.106)" fill="#27646a"/>
  <path id="Path_477" data-name="Path 477" d="M3830.9,8.488a2.66,2.66,0,0,0,.365-.03l7.494,11.775a5.237,5.237,0,1,0,9.6,3.749L3863.73,16.3a5.218,5.218,0,0,0,9.068-1.42l19.685,3.281a3.992,3.992,0,1,0,.155-3.107l-19.69-3.282a4.988,4.988,0,0,0-.23-.657l10.373-5.658a3.977,3.977,0,0,0,2.054.57,4.011,4.011,0,1,0-4.011-4.011,3.712,3.712,0,0,0,.123.921L3870.7,8.689a5.235,5.235,0,0,0-8.059,4.417,2.045,2.045,0,0,0,.021.267l-14.7,7.351a5.231,5.231,0,0,0-1.541-1.911l3.94-7.881a2.053,2.053,0,0,0,.268.02,5.259,5.259,0,1,0-3.189-1.089l-3.94,7.881a2.059,2.059,0,0,0-.268-.02,5.094,5.094,0,0,0-2.106.464L3834.2,7.3a5.227,5.227,0,1,0-3.3,1.184Zm10.176,14.481a2.153,2.153,0,1,1,2.152,2.153A2.155,2.155,0,0,1,3841.077,22.969Zm7.4-17.259a2.153,2.153,0,1,1,2.153,2.153A2.155,2.155,0,0,1,3848.473,5.71Zm-19.725-2.466A2.153,2.153,0,1,1,3830.9,5.4,2.155,2.155,0,0,1,3828.748,3.244Zm36.984,9.862a2.153,2.153,0,1,1,2.153,2.153A2.155,2.155,0,0,1,3865.732,13.106Zm29.587,3.7a.92.92,0,1,1,.92.92A.921.921,0,0,1,3895.32,16.8Zm-11.1-14.794a.92.92,0,1,1,.92.92A.921.921,0,0,1,3884.224,2.011Z" transform="translate(-3825.657 2)" fill="#27646a"/>
</svg>
