<svg id="Group_231" data-name="Group 231" xmlns="http://www.w3.org/2000/svg" width="67.575" height="75.98" viewBox="0 0 67.575 75.98">
  <g id="Group_230" data-name="Group 230" transform="translate(0 0)">
    <path id="Path_467" data-name="Path 467" d="M2101.435,8.6h-15.808V6.022a8.367,8.367,0,0,0-8.357-8.357h-15.027a8.367,8.367,0,0,0-8.357,8.357V8.6h-15.808a2.109,2.109,0,1,0,0,4.218h3.812V62.366a11.293,11.293,0,0,0,11.278,11.278h33.178a11.293,11.293,0,0,0,11.278-11.278V12.817h3.811a2.109,2.109,0,1,0,0-4.218ZM2058.1,6.022a4.147,4.147,0,0,1,4.139-4.139h15.027a4.147,4.147,0,0,1,4.14,4.139V8.6H2058.1Zm35.3,56.344a7.073,7.073,0,0,1-7.06,7.061h-33.178a7.073,7.073,0,0,1-7.061-7.061V12.817h47.315V62.366Z" transform="translate(-2035.969 2.335)" fill="#27646a"/>
    <path id="Path_468" data-name="Path 468" d="M2240.612,184.362a2.1,2.1,0,0,0,2.109-2.109V144.982a2.109,2.109,0,0,0-4.218,0v37.255A2.113,2.113,0,0,0,2240.612,184.362Z" transform="translate(-2206.824 -120.161)" fill="#27646a"/>
    <path id="Path_469" data-name="Path 469" d="M2152.627,194.5a2.1,2.1,0,0,0,2.109-2.109V159.763a2.109,2.109,0,0,0-4.218,0v32.632A2.11,2.11,0,0,0,2152.627,194.5Z" transform="translate(-2132.601 -132.63)" fill="#27646a"/>
    <path id="Path_470" data-name="Path 470" d="M2328.6,194.5a2.1,2.1,0,0,0,2.109-2.109V159.763a2.109,2.109,0,0,0-4.218,0v32.632A2.1,2.1,0,0,0,2328.6,194.5Z" transform="translate(-2281.046 -132.63)" fill="#27646a"/>
  </g>
</svg>
