<svg xmlns="http://www.w3.org/2000/svg" width="76.117" height="75.533" viewBox="0 0 76.117 75.533">
  <g id="Group_233" data-name="Group 233" transform="translate(0)">
    <path id="Path_478" data-name="Path 478" d="M1529.694-3.911a2.177,2.177,0,0,0-1.8.945c-.935,1.362-22.9,33.535-22.9,49.895a24.693,24.693,0,1,0,49.387,0c0-16.36-21.963-48.533-22.9-49.895A2.177,2.177,0,0,0,1529.694-3.911Zm20.337,50.84a20.338,20.338,0,1,1-40.675,0c0-12.432,15.07-36.644,20.338-44.725C1534.962,10.284,1550.031,34.5,1550.031,46.929Z" transform="translate(-1489.258 3.911)" fill="#27646a"/>
    <path id="Path_479" data-name="Path 479" d="M1648.953,323.924a2.18,2.18,0,0,0,2.178,2.178,16.738,16.738,0,0,0,16.72-16.719,2.178,2.178,0,0,0-4.356,0,12.377,12.377,0,0,1-12.364,12.363A2.18,2.18,0,0,0,1648.953,323.924Z" transform="translate(-1610.694 -258.543)" fill="#27646a"/>
    <path id="Path_480" data-name="Path 480" d="M1811.081,13.209h-2.851V10.358a2.178,2.178,0,0,0-4.356,0v2.851h-2.851a2.178,2.178,0,0,0,0,4.356h2.851v2.851a2.178,2.178,0,0,0,4.356,0V17.565h2.851a2.178,2.178,0,0,0,0-4.356Z" transform="translate(-1737.141 -6.289)" fill="#27646a"/>
    <path id="Path_481" data-name="Path 481" d="M1416.59,342.154h-2.851V339.3a2.178,2.178,0,1,0-4.356,0v2.851h-2.851a2.178,2.178,0,0,0,0,4.356h2.851v2.851a2.178,2.178,0,1,0,4.356,0V346.51h2.851a2.178,2.178,0,1,0,0-4.356Z" transform="translate(-1404.354 -283.783)" fill="#27646a"/>
  </g>
</svg>
