<svg xmlns="http://www.w3.org/2000/svg" width="79.471" height="74.506" viewBox="0 0 79.471 74.506">
  <g id="Group_228" data-name="Group 228" transform="translate(0)">
    <path id="Path_459" data-name="Path 459" d="M577.954,364.113a11.96,11.96,0,0,0-7.537,2.542,7.9,7.9,0,0,1-9.888,0,12.446,12.446,0,0,0-15.074,0,7.9,7.9,0,0,1-9.888,0,12.446,12.446,0,0,0-15.074,0,7.9,7.9,0,0,1-9.888,0,11.956,11.956,0,0,0-7.536-2.542,2.293,2.293,0,0,0-2.293,2.293V380a2.293,2.293,0,0,0,2.293,2.292h74.886A2.292,2.292,0,0,0,580.246,380V366.406A2.293,2.293,0,0,0,577.954,364.113Zm-2.293,13.595h-70.3V369a9.466,9.466,0,0,1,2.651,1.437,12.445,12.445,0,0,0,15.074,0,7.9,7.9,0,0,1,9.888,0,12.445,12.445,0,0,0,15.074,0,7.9,7.9,0,0,1,9.889,0,12.446,12.446,0,0,0,15.074,0A9.462,9.462,0,0,1,575.661,369Z" transform="translate(-500.775 -307.787)" fill="#27646a"/>
    <path id="Path_460" data-name="Path 460" d="M596.858,46.186c-1.579,1.267-3.743,3-3.743,6.419a2.292,2.292,0,1,0,4.585,0c0-1.111.556-1.663,2.028-2.844,1.58-1.268,3.743-3,3.743-6.419s-2.163-5.152-3.743-6.42c-1.472-1.181-2.028-1.732-2.028-2.844s.556-1.662,2.028-2.843c1.58-1.268,3.743-3,3.743-6.419s-2.163-5.151-3.743-6.419c-1.471-1.181-2.028-1.732-2.028-2.843s.556-1.663,2.028-2.843c1.58-1.268,3.743-3,3.743-6.419a2.293,2.293,0,0,0-4.585,0c0,1.111-.556,1.662-2.027,2.843-1.58,1.267-3.743,3-3.743,6.419s2.163,5.152,3.743,6.419c1.471,1.181,2.027,1.732,2.027,2.844s-.556,1.662-2.028,2.843c-1.579,1.268-3.743,3-3.743,6.419s2.163,5.152,3.743,6.42c1.472,1.181,2.028,1.732,2.028,2.843S598.33,45,596.858,46.186Z" transform="translate(-578.672 -4)" fill="#27646a"/>
    <path id="Path_461" data-name="Path 461" d="M682.592,46.186c-1.58,1.267-3.743,3-3.743,6.419a2.292,2.292,0,1,0,4.585,0c0-1.111.557-1.663,2.028-2.844,1.579-1.268,3.743-3,3.743-6.419s-2.163-5.152-3.743-6.42c-1.471-1.181-2.028-1.732-2.028-2.844s.557-1.662,2.028-2.843c1.579-1.268,3.743-3,3.743-6.419s-2.163-5.151-3.743-6.419c-1.471-1.181-2.028-1.732-2.028-2.843s.557-1.663,2.028-2.843c1.579-1.268,3.743-3,3.743-6.419a2.292,2.292,0,1,0-4.585,0c0,1.111-.556,1.662-2.028,2.843-1.579,1.268-3.743,3-3.743,6.419s2.164,5.151,3.743,6.419c1.472,1.182,2.028,1.732,2.028,2.844s-.556,1.662-2.028,2.843c-1.58,1.268-3.743,3-3.743,6.419s2.163,5.152,3.743,6.42c1.472,1.181,2.028,1.732,2.028,2.844S684.064,45,682.592,46.186Z" transform="translate(-650.996 -4)" fill="#27646a"/>
    <path id="Path_462" data-name="Path 462" d="M768.33,46.186c-1.579,1.267-3.743,3-3.743,6.419a2.293,2.293,0,0,0,4.585,0c0-1.111.556-1.663,2.028-2.844,1.58-1.268,3.743-3,3.743-6.419s-2.163-5.152-3.743-6.42c-1.472-1.181-2.028-1.732-2.028-2.844s.556-1.662,2.027-2.843c1.58-1.268,3.743-3,3.743-6.419S772.78,19.665,771.2,18.4c-1.471-1.181-2.027-1.732-2.027-2.843s.556-1.663,2.027-2.843c1.58-1.268,3.743-3,3.743-6.419a2.292,2.292,0,1,0-4.585,0c0,1.111-.556,1.662-2.028,2.843-1.58,1.268-3.743,3-3.743,6.419s2.163,5.151,3.743,6.419c1.472,1.182,2.028,1.732,2.028,2.844s-.556,1.662-2.028,2.843c-1.579,1.268-3.743,3-3.743,6.419s2.163,5.152,3.743,6.42c1.472,1.181,2.028,1.732,2.028,2.844S769.8,45,768.33,46.186Z" transform="translate(-723.323 -4)" fill="#27646a"/>
    <path id="Path_463" data-name="Path 463" d="M854.065,46.186c-1.579,1.267-3.743,3-3.743,6.419a2.292,2.292,0,1,0,4.584,0c0-1.111.557-1.663,2.028-2.844,1.579-1.268,3.743-3,3.743-6.419s-2.163-5.152-3.743-6.42c-1.471-1.181-2.028-1.732-2.028-2.844s.557-1.662,2.028-2.843c1.579-1.268,3.743-3,3.743-6.419s-2.163-5.151-3.743-6.419c-1.471-1.181-2.028-1.732-2.028-2.843s.557-1.663,2.028-2.843c1.579-1.268,3.743-3,3.743-6.419a2.292,2.292,0,1,0-4.585,0c0,1.111-.556,1.662-2.028,2.843-1.58,1.268-3.743,3-3.743,6.419s2.163,5.151,3.743,6.419c1.472,1.182,2.028,1.732,2.028,2.844s-.556,1.662-2.028,2.843c-1.579,1.268-3.743,3-3.743,6.419s2.163,5.152,3.743,6.42c1.472,1.181,2.028,1.732,2.028,2.844S855.537,45,854.065,46.186Z" transform="translate(-795.648 -4)" fill="#27646a"/>
  </g>
</svg>
