<svg xmlns="http://www.w3.org/2000/svg" width="66.107" height="77.632" viewBox="0 0 66.107 77.632"><path d="M104.031,21.063l0-.06c-.034-.746-.056-1.535-.07-2.412a8.228,8.228,0,0,0-7.747-8.06c-8.926-.5-15.831-3.408-21.73-9.159l-.05-.048a4.968,4.968,0,0,0-6.752,0l-.05.048c-5.9,5.75-12.8,8.661-21.73,9.16a8.227,8.227,0,0,0-7.747,8.06c-.013.872-.036,1.661-.07,2.412l0,.14c-.173,9.1-.389,20.429,3.4,30.71a39.093,39.093,0,0,0,9.379,14.609A49.061,49.061,0,0,0,69.211,77.317a5.7,5.7,0,0,0,.752.2,5.556,5.556,0,0,0,2.184,0,5.692,5.692,0,0,0,.755-.206A49.094,49.094,0,0,0,91.236,66.454a39.15,39.15,0,0,0,9.379-14.612C104.419,41.53,104.2,30.181,104.031,21.063Zm-7.69,29.2c-4,10.836-12.155,18.278-24.942,22.75a1.151,1.151,0,0,1-.144.039,1.023,1.023,0,0,1-.4,0,1.13,1.13,0,0,1-.143-.039c-12.8-4.463-20.964-11.9-24.958-22.738C42.26,40.8,42.458,30.4,42.633,21.23v-.051c.036-.788.059-1.614.072-2.521a3.657,3.657,0,0,1,3.446-3.579,39.969,39.969,0,0,0,13.566-2.984A35.492,35.492,0,0,0,70.773,4.667a.42.42,0,0,1,.564,0,35.5,35.5,0,0,0,11.055,7.427,39.97,39.97,0,0,0,13.566,2.984,3.656,3.656,0,0,1,3.446,3.58c.014.912.037,1.738.073,2.521C99.651,30.363,99.844,40.769,96.341,50.266Z" transform="translate(-38.001 0.001)" fill="#27646a"/><path d="M147.746,128.41a19.347,19.347,0,1,0,19.347,19.347A19.369,19.369,0,0,0,147.746,128.41Zm0,34.139a14.792,14.792,0,1,1,14.791-14.792A14.808,14.808,0,0,1,147.746,162.549Z" transform="translate(-114.693 -108.94)" fill="#27646a"/><path d="M206.987,212.659,198,221.645l-2.439-2.439a2.278,2.278,0,1,0-3.221,3.221l4.05,4.05a2.278,2.278,0,0,0,3.221,0l10.6-10.6a2.278,2.278,0,0,0-3.221-3.221Z" transform="translate(-168.373 -179.848)" fill="#27646a"/></svg>