<svg xmlns="http://www.w3.org/2000/svg" width="98.519" height="62.32" viewBox="0 0 98.519 62.32"><path d="M91.623,120.482l-2.551-10.205a1.543,1.543,0,0,0,1.221-1.508v-1.645a6.486,6.486,0,0,0-6.479-6.479H72.193V97.25A3.192,3.192,0,0,0,69,94.062H9.77A3.192,3.192,0,0,0,6.582,97.25v27.972a1.543,1.543,0,0,0,3.085,0V97.25a.1.1,0,0,1,.1-.1H69a.1.1,0,0,1,.1.1v27.973a1.543,1.543,0,0,0,3.085,0v-1.749H90.4a5.048,5.048,0,0,1,4.794,3.5h-4.8a1.543,1.543,0,0,0-1.543,1.543V131.8a4.839,4.839,0,0,0,4.833,4.833h1.748v6.787H91.4a9.767,9.767,0,0,0-18.465,0h-.743V131.8a1.543,1.543,0,1,0-3.085,0v11.621h-32a9.767,9.767,0,0,0-18.465,0H9.77a.1.1,0,0,1-.1-.1v-3.394h6.685a1.543,1.543,0,0,0,0-3.085H1.543a1.543,1.543,0,0,0,0,3.085H6.582v3.394A3.192,3.192,0,0,0,9.77,146.51H18.1c0,.034,0,.068,0,.1a9.77,9.77,0,1,0,19.539,0c0-.035,0-.069,0-.1H72.4c0,.034,0,.068,0,.1a9.77,9.77,0,1,0,19.539,0c0-.035,0-.069,0-.1h5.042a1.543,1.543,0,0,0,1.543-1.543V128.513A8.137,8.137,0,0,0,91.623,120.482Zm-19.43-16.753H83.814a3.4,3.4,0,0,1,3.394,3.394v.1H72.193Zm0,16.66V110.311H85.9l2.52,10.078ZM27.869,153.3a6.685,6.685,0,1,1,6.685-6.685A6.692,6.692,0,0,1,27.869,153.3Zm54.3,0a6.685,6.685,0,1,1,6.685-6.685A6.692,6.692,0,0,1,82.168,153.3Zm13.266-19.745H93.686a1.75,1.75,0,0,1-1.748-1.748v-1.748h3.5v3.5Z" transform="translate(0 -94.062)" fill="#27646a"/><g transform="translate(24.681 49.363)"><path d="M131.455,350.6a3.188,3.188,0,1,0,3.188,3.188A3.192,3.192,0,0,0,131.455,350.6Z" transform="translate(-128.267 -350.597)" fill="#27646a"/></g><g transform="translate(78.98 49.363)"><path d="M413.643,350.6a3.188,3.188,0,1,0,3.188,3.188A3.192,3.192,0,0,0,413.643,350.6Z" transform="translate(-410.455 -350.597)" fill="#27646a"/></g><g transform="translate(39.49 42.781)"><path d="M229.806,316.393H206.77a1.543,1.543,0,0,0,0,3.085h23.036a1.543,1.543,0,1,0,0-3.085Z" transform="translate(-205.227 -316.393)" fill="#27646a"/></g><g transform="translate(3.291 36.199)"><path d="M38.39,282.188H18.645a1.543,1.543,0,1,0,0,3.085H38.39a1.543,1.543,0,1,0,0-3.085Z" transform="translate(-17.102 -282.188)" fill="#27646a"/></g><g transform="translate(27.972 14.809)"><path d="M171.039,171.474a1.543,1.543,0,0,0-2.181,0l-13.718,13.718L148,178.056a1.543,1.543,0,0,0-2.181,2.181l8.227,8.227a1.542,1.542,0,0,0,2.181,0l14.809-14.809A1.543,1.543,0,0,0,171.039,171.474Z" transform="translate(-145.37 -171.023)" fill="#27646a"/></g></svg>