<svg xmlns="http://www.w3.org/2000/svg" width="62.844" height="81.666" viewBox="0 0 62.844 81.666"><g transform="translate(0.5 0.5)"><path d="M66.219,58.218v69.911a1.345,1.345,0,0,0,1.345,1.344h51.088A1.344,1.344,0,0,0,120,128.129V71.663c0-.03-.014-.055-.017-.085a1.267,1.267,0,0,0-.069-.346c-.015-.043-.025-.085-.044-.127a1.332,1.332,0,0,0-.269-.394L106.153,57.268a1.3,1.3,0,0,0-.4-.269,1.218,1.218,0,0,0-.124-.044,1.338,1.338,0,0,0-.348-.07c-.023,0-.049-.01-.078-.01H67.564A1.344,1.344,0,0,0,66.219,58.218Zm49.187,12.1h-8.854V61.464Zm-46.5-10.756h34.956v12.1a1.344,1.344,0,0,0,1.344,1.344h12.1v53.778h-48.4Z" transform="translate(-66.219 -48.807)" fill="#27646a" stroke="#27646a" stroke-width="1"/><path d="M171.489,69.91V72.6h4.033a1.344,1.344,0,0,0,1.344-1.344V1.345A1.345,1.345,0,0,0,175.522,0H124.434a1.345,1.345,0,0,0-1.345,1.345V5.378h2.689V2.689h48.4V69.91Z" transform="translate(-115.023)" fill="#27646a" stroke="#27646a" stroke-width="1"/><path d="M142.048,189.573h32.266v2.689H142.048Z" transform="translate(-131.292 -162.684)" fill="#27646a" stroke="#27646a" stroke-width="1"/><path d="M142.048,132.7H152.8v2.689H142.048Z" transform="translate(-131.292 -113.877)" fill="#27646a" stroke="#27646a" stroke-width="1"/><path d="M142.048,246.443h21.511v2.689H142.048Z" transform="translate(-131.292 -211.488)" fill="#27646a" stroke="#27646a" stroke-width="1"/><path d="M312.662,246.443h8.066v2.689h-8.066Z" transform="translate(-277.707 -211.488)" fill="#27646a" stroke="#27646a" stroke-width="1"/><path d="M142.048,303.312h32.266V306H142.048Z" transform="translate(-131.292 -260.29)" fill="#27646a" stroke="#27646a" stroke-width="1"/><path d="M142.048,417.056h32.266v2.689H142.048Z" transform="translate(-131.292 -357.901)" fill="#27646a" stroke="#27646a" stroke-width="1"/><path d="M227.353,360.186h20.166v2.689H227.353Z" transform="translate(-204.498 -309.097)" fill="#27646a" stroke="#27646a" stroke-width="1"/><path d="M142.048,360.186h9.411v2.689h-9.411Z" transform="translate(-131.292 -309.097)" fill="#27646a" stroke="#27646a" stroke-width="1"/><path d="M142.048,473.93h5.378v2.689h-5.378Z" transform="translate(-131.292 -406.708)" fill="#27646a" stroke="#27646a" stroke-width="1"/><path d="M198.918,473.93h24.2v2.689h-24.2Z" transform="translate(-180.096 -406.708)" fill="#27646a" stroke="#27646a" stroke-width="1"/></g></svg>