<svg xmlns="http://www.w3.org/2000/svg" width="83.786" height="83.786" viewBox="0 0 83.786 83.786"><g transform="translate(0.25 0.25)"><g transform="translate(26.374 40.255)"><path d="M159.523,243.685l-3.061-1.018a2.464,2.464,0,0,1-1.685-2.339,2.776,2.776,0,0,1,5.552,0h2.776a5.553,5.553,0,0,0-4.164-5.355V232h-2.776v2.973A5.553,5.553,0,0,0,152,240.329a5.236,5.236,0,0,0,3.583,4.972l3.061,1.018a2.464,2.464,0,0,1,1.685,2.339,2.776,2.776,0,0,1-5.552,0H152a5.553,5.553,0,0,0,4.164,5.355v2.973h2.776v-2.973a5.553,5.553,0,0,0,4.164-5.355A5.236,5.236,0,0,0,159.523,243.685Z" transform="translate(-152.001 -232)" fill="#27646a" stroke="#233a68" stroke-width="0.5"/></g><g transform="translate(0)"><g transform="translate(0)"><path d="M81.9,30.538H53.837a31.964,31.964,0,0,0-10.8-8.587V15.963l5-3.748a1.388,1.388,0,0,0,.555-1.11V1.388A1.388,1.388,0,0,0,47.2,0H41.644a1.388,1.388,0,0,0-.981.407L38.868,2.2,37.073.407A1.388,1.388,0,0,0,36.091,0H27.763a1.388,1.388,0,0,0-.981.407L24.987,2.2,23.192.407A1.388,1.388,0,0,0,22.21,0H16.658A1.388,1.388,0,0,0,15.27,1.388V11.1a1.388,1.388,0,0,0,.555,1.11l5,3.748v6C10.315,27.05,0,40.707,0,58.224,0,74.151,11.637,83.286,31.927,83.286a53.6,53.6,0,0,0,9.821-.872,1.388,1.388,0,0,0,1.284.872H81.9A1.388,1.388,0,0,0,83.287,81.9V31.926A1.388,1.388,0,0,0,81.9,30.538ZM18.046,10.411V2.776h3.59l2.369,2.369a1.388,1.388,0,0,0,1.963,0l2.369-2.369h7.179l2.369,2.369a1.388,1.388,0,0,0,1.963,0l2.369-2.369h3.59v7.635l-4.627,3.47H22.673Zm22.21,6.246v4.164H23.6V16.657Zm1.388,47.852a15.269,15.269,0,1,1,0-23.521V64.509Zm0-32.583v5.632a18.045,18.045,0,1,0,0,30.378V79.61a50.55,50.55,0,0,1-9.717.9c-8.764,0-29.15-2.171-29.15-22.286,0-13.28,7.959-29.8,21.285-34.626H39.8a27.346,27.346,0,0,1,10.318,6.94H43.032A1.388,1.388,0,0,0,41.644,31.926ZM80.51,80.51H44.42V44.419H80.51Zm0-38.867H44.42V33.314H80.51Z" transform="translate(-0.001)" fill="#27646a" stroke="#233a68" stroke-width="0.5"/></g></g><g transform="translate(47.195 47.195)"><path d="M278.941,272h-5.552A1.388,1.388,0,0,0,272,273.388v5.552a1.388,1.388,0,0,0,1.388,1.388h5.552a1.388,1.388,0,0,0,1.388-1.388v-5.552A1.388,1.388,0,0,0,278.941,272Zm-1.388,5.552h-2.776v-2.776h2.776Z" transform="translate(-272.001 -272)" fill="#27646a" stroke="#233a68" stroke-width="0.5"/></g><g transform="translate(58.3 47.195)"><path d="M342.941,272h-5.552A1.388,1.388,0,0,0,336,273.388v5.552a1.388,1.388,0,0,0,1.388,1.388h5.552a1.388,1.388,0,0,0,1.388-1.388v-5.552A1.388,1.388,0,0,0,342.941,272Zm-1.388,5.552h-2.776v-2.776h2.776Z" transform="translate(-336.001 -272)" fill="#27646a" stroke="#233a68" stroke-width="0.5"/></g><g transform="translate(69.405 47.195)"><path d="M406.941,272h-5.552A1.388,1.388,0,0,0,400,273.388v5.552a1.388,1.388,0,0,0,1.388,1.388h5.552a1.388,1.388,0,0,0,1.388-1.388v-5.552A1.388,1.388,0,0,0,406.941,272Zm-1.388,5.552h-2.776v-2.776h2.776Z" transform="translate(-400.001 -272)" fill="#27646a" stroke="#233a68" stroke-width="0.5"/></g><g transform="translate(47.195 58.3)"><path d="M278.941,336h-5.552A1.388,1.388,0,0,0,272,337.388v5.552a1.388,1.388,0,0,0,1.388,1.388h5.552a1.388,1.388,0,0,0,1.388-1.388v-5.552A1.388,1.388,0,0,0,278.941,336Zm-1.388,5.552h-2.776v-2.776h2.776Z" transform="translate(-272.001 -336)" fill="#27646a" stroke="#233a68" stroke-width="0.5"/></g><g transform="translate(58.3 58.3)"><path d="M342.941,336h-5.552A1.388,1.388,0,0,0,336,337.388v5.552a1.388,1.388,0,0,0,1.388,1.388h5.552a1.388,1.388,0,0,0,1.388-1.388v-5.552A1.388,1.388,0,0,0,342.941,336Zm-1.388,5.552h-2.776v-2.776h2.776Z" transform="translate(-336.001 -336)" fill="#27646a" stroke="#233a68" stroke-width="0.5"/></g><g transform="translate(47.195 69.405)"><path d="M278.941,400h-5.552A1.388,1.388,0,0,0,272,401.388v5.552a1.388,1.388,0,0,0,1.388,1.388h5.552a1.388,1.388,0,0,0,1.388-1.388v-5.552A1.388,1.388,0,0,0,278.941,400Zm-1.388,5.552h-2.776v-2.776h2.776Z" transform="translate(-272.001 -400)" fill="#27646a" stroke="#233a68" stroke-width="0.5"/></g><g transform="translate(58.3 69.405)"><path d="M342.941,400h-5.552A1.388,1.388,0,0,0,336,401.388v5.552a1.388,1.388,0,0,0,1.388,1.388h5.552a1.388,1.388,0,0,0,1.388-1.388v-5.552A1.388,1.388,0,0,0,342.941,400Zm-1.388,5.552h-2.776v-2.776h2.776Z" transform="translate(-336.001 -400)" fill="#27646a" stroke="#233a68" stroke-width="0.5"/></g><g transform="translate(69.405 58.3)"><path d="M406.941,336h-5.552A1.388,1.388,0,0,0,400,337.388v16.657a1.388,1.388,0,0,0,1.388,1.388h5.552a1.388,1.388,0,0,0,1.388-1.388V337.388A1.388,1.388,0,0,0,406.941,336Zm-1.388,16.657h-2.776V338.776h2.776Z" transform="translate(-400.001 -336)" fill="#27646a" stroke="#233a68" stroke-width="0.5"/></g><g transform="translate(69.405 36.091)"><rect width="2.776" height="2.776" fill="#27646a" stroke="#233a68" stroke-width="0.5"/></g><g transform="translate(63.852 36.091)"><rect width="2.776" height="2.776" fill="#27646a" stroke="#233a68" stroke-width="0.5"/></g></g></svg>