<svg id="Group_1551" data-name="Group 1551" xmlns="http://www.w3.org/2000/svg" width="57" height="40.852" viewBox="0 0 57 40.852">
  <g id="Group_1526" data-name="Group 1526" transform="translate(7.6 29.45)">
    <g id="Group_1525" data-name="Group 1525">
      <path id="Path_1339" data-name="Path 1339" d="M741.967,344.067a5.7,5.7,0,1,0,5.7,5.7A5.706,5.706,0,0,0,741.967,344.067Zm0,9.5a3.8,3.8,0,1,1,3.8-3.8A3.8,3.8,0,0,1,741.967,353.567Z" transform="translate(-736.267 -344.067)"/>
    </g>
  </g>
  <g id="Group_1528" data-name="Group 1528" transform="translate(39.9 29.45)">
    <g id="Group_1527" data-name="Group 1527">
      <path id="Path_1340" data-name="Path 1340" d="M1032.1,344.067a5.7,5.7,0,1,0,5.7,5.7A5.706,5.706,0,0,0,1032.1,344.067Zm0,9.5a3.8,3.8,0,1,1,3.8-3.8A3.8,3.8,0,0,1,1032.1,353.567Z" transform="translate(-1026.4 -344.067)"/>
    </g>
  </g>
  <g id="Group_1530" data-name="Group 1530" transform="translate(36.1 10.45)">
    <g id="Group_1529" data-name="Group 1529">
      <path id="Path_1341" data-name="Path 1341" d="M1013.016,187.136l-8.55-13.3a.95.95,0,0,0-.8-.436h-10.45a.95.95,0,0,0-.95.95V198.1a.949.949,0,0,0,.95.95h3.8v-1.9h-2.85V175.3h8.981l8.119,12.629v9.221h-4.75v1.9h5.7a.949.949,0,0,0,.95-.95V187.65A.947.947,0,0,0,1013.016,187.136Z" transform="translate(-992.267 -173.4)"/>
    </g>
  </g>
  <g id="Group_1532" data-name="Group 1532" transform="translate(39.9 14.25)">
    <g id="Group_1531" data-name="Group 1531" transform="translate(0 0)">
      <path id="Path_1342" data-name="Path 1342" d="M1028.3,216.083v-6.65h7.6v-1.9h-8.55a.95.95,0,0,0-.95.95v8.55a.949.949,0,0,0,.95.95h14.25v-1.9h-13.3Z" transform="translate(-1026.401 -207.533)"/>
    </g>
  </g>
  <g id="Group_1534" data-name="Group 1534" transform="translate(0 3.8)">
    <g id="Group_1533" data-name="Group 1533">
      <path id="Path_1343" data-name="Path 1343" d="M705.05,113.667h-36.1a.95.95,0,0,0-.95.95v30.4a.95.95,0,0,0,.95.95h7.6v-1.9H669.9v-28.5h34.2v28.5H686.05v1.9h19a.949.949,0,0,0,.95-.95v-30.4A.95.95,0,0,0,705.05,113.667Z" transform="translate(-668 -113.667)"/>
    </g>
  </g>
  <g id="Group_1536" data-name="Group 1536" transform="translate(0.95 30.4)">
    <g id="Group_1535" data-name="Group 1535">
      <rect id="Rectangle_1025" data-name="Rectangle 1025" width="5.7" height="1.9"/>
    </g>
  </g>
  <g id="Group_1538" data-name="Group 1538" transform="translate(19.95 30.4)">
    <g id="Group_1537" data-name="Group 1537">
      <rect id="Rectangle_1026" data-name="Rectangle 1026" width="16.15" height="1.9"/>
    </g>
  </g>
  <g id="Group_1540" data-name="Group 1540" transform="translate(52.25 30.4)">
    <g id="Group_1539" data-name="Group 1539">
      <rect id="Rectangle_1027" data-name="Rectangle 1027" width="3.8" height="1.9"/>
    </g>
  </g>
  <g id="Group_1542" data-name="Group 1542" transform="translate(3.8 7.6)">
    <g id="Group_1541" data-name="Group 1541">
      <rect id="Rectangle_1028" data-name="Rectangle 1028" width="33.25" height="1.9"/>
    </g>
  </g>
  <g id="Group_1544" data-name="Group 1544" transform="translate(12.35 34.2)">
    <g id="Group_1543" data-name="Group 1543">
      <rect id="Rectangle_1029" data-name="Rectangle 1029" width="1.9" height="1.9"/>
    </g>
  </g>
  <g id="Group_1546" data-name="Group 1546" transform="translate(44.65 34.2)">
    <g id="Group_1545" data-name="Group 1545">
      <rect id="Rectangle_1030" data-name="Rectangle 1030" width="1.9" height="1.9"/>
    </g>
  </g>
  <g id="Group_1548" data-name="Group 1548" transform="translate(3.8)">
    <g id="Group_1547" data-name="Group 1547">
      <rect id="Rectangle_1031" data-name="Rectangle 1031" width="13.3" height="1.9"/>
    </g>
  </g>
  <g id="Group_1550" data-name="Group 1550">
    <g id="Group_1549" data-name="Group 1549">
      <rect id="Rectangle_1032" data-name="Rectangle 1032" width="1.9" height="1.9"/>
    </g>
  </g>
</svg>
