<svg id="Group_1552" data-name="Group 1552" xmlns="http://www.w3.org/2000/svg" width="53.215" height="53.215" viewBox="0 0 53.215 53.215">
  <path id="Path_1344" data-name="Path 1344" d="M58.936,37.423l3.994-3.55.015-.013A13.33,13.33,0,0,0,67.08,22.191l-.145-1.029A2.688,2.688,0,0,0,64.673,18.9l-1.021-.144a13.343,13.343,0,0,0-11.689,4.151L48.412,26.9l-1.919-1.1a33.266,33.266,0,0,0-16.6-4.409l-1.651.006a4.459,4.459,0,0,0-3.837,2.224l-.311.54a.889.889,0,0,0,.325,1.214l16.946,9.784-13.242,15-1.014,1.3a18.709,18.709,0,0,0-8.971-2.3L16.8,49.155a2.708,2.708,0,0,0-2.3,1.334l-.378.647a.89.89,0,0,0,.326,1.216l8.627,4.981c-.244.473-.476.947-.687,1.435a3.556,3.556,0,0,0,4.681,4.677.635.635,0,0,0,.066-.031c.445-.191.9-.416,1.368-.656l4.981,8.628a.89.89,0,0,0,1.217.33l.654-.378h.005a2.712,2.712,0,0,0,1.327-2.313L36.679,67.7a18.71,18.71,0,0,0-2.308-8.978l1.285-1L50.672,44.466l9.789,16.949a.89.89,0,0,0,1.214.326l.54-.311a4.459,4.459,0,0,0,2.224-3.839l.005-1.649a32.953,32.953,0,0,0-4.407-16.6ZM28.251,23.172l1.651-.006a31.374,31.374,0,0,1,15.7,4.171l1.623.933-4.673,5.522L26.091,24.285A2.681,2.681,0,0,1,28.251,23.172ZM16.8,50.935l1.334.006a16.944,16.944,0,0,1,7.874,1.942l-.559.72c-.323.408-.63.84-.928,1.283-.089.128-.169.259-.254.39-.11.17-.224.334-.33.508l-7.827-4.516A.9.9,0,0,1,16.8,50.935ZM34.895,67.7l.007,1.314a.907.907,0,0,1-.333.7l-4.515-7.827c.172-.105.334-.217.5-.326.132-.089.267-.17.4-.258.431-.29.85-.588,1.245-.9l.026-.019.73-.568A16.947,16.947,0,0,1,34.895,67.7ZM34.52,56.355,32.69,57.778a.014.014,0,0,0-.015.008L31.124,59a20.529,20.529,0,0,1-2.72,1.8,21.476,21.476,0,0,1-2.03,1.012.615.615,0,0,0-.058.026,1.788,1.788,0,0,1-2.29-2.364,21.543,21.543,0,0,1,1.018-2.046A20.453,20.453,0,0,1,26.851,54.7l1.2-1.541a.017.017,0,0,1,.007-.014L29.5,51.29,53.28,24.1a11.568,11.568,0,0,1,8.472-3.7,11.4,11.4,0,0,1,1.646.119l1.021.144a.9.9,0,0,1,.757.753l.145,1.028a11.553,11.553,0,0,1-3.582,10.105Zm28.143,1.231a2.677,2.677,0,0,1-1.114,2.158L52.043,43.276l5.524-4.669.935,1.624A31.175,31.175,0,0,1,62.669,55.94Z" transform="translate(-14 -18.62)"/>
  <path id="Path_1345" data-name="Path 1345" d="M389.135,60.709a2.668,2.668,0,0,1,3.654,3.657.89.89,0,0,0,1.53.908,4.447,4.447,0,0,0-6.089-6.1.89.89,0,1,0,.9,1.532Z" transform="translate(-346.173 -54.111)"/>
</svg>
