<svg id="Group_1524" data-name="Group 1524" xmlns="http://www.w3.org/2000/svg" width="53.43" height="57" viewBox="0 0 53.43 57">
  <g id="Group_1519" data-name="Group 1519" transform="translate(0 0)">
    <g id="Group_1518" data-name="Group 1518">
      <path id="Path_1336" data-name="Path 1336" d="M68.991,12.576,43.11.082a.835.835,0,0,0-.726,0L16.5,12.576a.835.835,0,0,0-.472.752V43.671a.835.835,0,0,0,.472.752l25.88,12.494a.835.835,0,0,0,.726,0l25.88-12.494a.835.835,0,0,0,.472-.752V13.328A.835.835,0,0,0,68.991,12.576ZM42.747,1.762l23.96,11.567-6.945,3.353a.828.828,0,0,0-.141-.089L35.823,5.1Zm-8.81,4.287L57.862,17.6l-4.9,2.366L29.047,8.419ZM58.422,19.182v8.744l-4.577,2.21V21.392Zm9.37,23.965L43.582,54.834V26.346l5.775-2.788a.835.835,0,0,0-.726-1.5L42.747,24.9l-2.315-1.118a.835.835,0,0,0-.726,1.5l2.206,1.065V54.834L17.7,43.147V14.659l18.436,8.9a.835.835,0,0,0,.726-1.5L18.787,13.328l8.295-4L52.164,21.433l.012.015V31.467a.835.835,0,0,0,1.2.752L59.62,29.2a.835.835,0,0,0,.472-.752V18.376l7.7-3.717V43.147Z" transform="translate(-16.032 0.001)"/>
    </g>
  </g>
  <g id="Group_1521" data-name="Group 1521" transform="translate(5.023 24.865)">
    <g id="Group_1520" data-name="Group 1520">
      <path id="Path_1337" data-name="Path 1337" d="M53.044,343.178l-3.8-1.833a.835.835,0,0,0-.726,1.5l3.8,1.833a.835.835,0,0,0,.726-1.5Z" transform="translate(-48.048 -341.261)"/>
    </g>
  </g>
  <g id="Group_1523" data-name="Group 1523" transform="translate(5.028 20.905)">
    <g id="Group_1522" data-name="Group 1522">
      <path id="Path_1338" data-name="Path 1338" d="M56.582,309.292l-7.288-3.518a.835.835,0,0,0-.726,1.5l7.288,3.518a.835.835,0,0,0,.726-1.5Z" transform="translate(-48.096 -305.69)"/>
    </g>
  </g>
</svg>
