<svg xmlns="http://www.w3.org/2000/svg" width="101" height="78.195" viewBox="0 0 101 78.195">
  <g id="Group_1403" data-name="Group 1403" transform="translate(0.5 0.5)">
    <path id="Path_1297" data-name="Path 1297" d="M1047.494-414.9H962.508A7.516,7.516,0,0,0,955-407.39v37.618a7.517,7.517,0,0,0,7.508,7.508h20.664a15.846,15.846,0,0,1-.145,17.386l-2.965,4.448a1.753,1.753,0,0,0,.486,2.432,1.747,1.747,0,0,0,.972.3,1.753,1.753,0,0,0,1.462-.781l2.965-4.448a19.339,19.339,0,0,0,1.26-19.333h18.773a15.846,15.846,0,0,1-.145,17.386l-2.965,4.448a1.754,1.754,0,0,0,.486,2.433,1.754,1.754,0,0,0,.972.294,1.753,1.753,0,0,0,1.462-.781l2.965-4.448a19.339,19.339,0,0,0,1.259-19.333h18.773a15.848,15.848,0,0,1-.144,17.388l-2.966,4.447a1.753,1.753,0,0,0,.487,2.433,1.747,1.747,0,0,0,.972.3,1.75,1.75,0,0,0,1.461-.782l2.966-4.447a19.34,19.34,0,0,0,1.259-19.333h14.673a7.517,7.517,0,0,0,7.507-7.508V-407.39A7.514,7.514,0,0,0,1047.494-414.9Zm4,45.125a4,4,0,0,1-4,4h-16.672a15.816,15.816,0,0,1-1.931-7.513v-6.522h5.041a1.753,1.753,0,0,0,1.468-.794,1.749,1.749,0,0,0,.14-1.662l-6.519-14.912a1.753,1.753,0,0,0-1.607-1.052,1.753,1.753,0,0,0-1.606,1.051l-6.521,14.912a1.754,1.754,0,0,0,.138,1.664,1.755,1.755,0,0,0,1.468.794h4.491v6.522a19.322,19.322,0,0,0,1.525,7.513h-18.892a15.8,15.8,0,0,1-1.932-7.513v-6.522h5.04a1.755,1.755,0,0,0,1.469-.794,1.749,1.749,0,0,0,.139-1.662l-6.518-14.912a1.753,1.753,0,0,0-1.607-1.052,1.756,1.756,0,0,0-1.607,1.051l-6.52,14.912a1.754,1.754,0,0,0,.139,1.664,1.753,1.753,0,0,0,1.468.794h4.491v6.522a19.33,19.33,0,0,0,1.526,7.513H985.208a15.8,15.8,0,0,1-1.932-7.513v-6.522h5.04a1.756,1.756,0,0,0,1.469-.794,1.751,1.751,0,0,0,.139-1.662l-6.518-14.912a1.752,1.752,0,0,0-1.607-1.052,1.754,1.754,0,0,0-1.607,1.051l-6.52,14.912a1.752,1.752,0,0,0,.139,1.664,1.753,1.753,0,0,0,1.468.794h4.49v6.522a19.347,19.347,0,0,0,1.525,7.513H962.508a4,4,0,0,1-4-4V-407.39a4,4,0,0,1,4-4h84.986a4,4,0,0,1,4,4Zm-27.919-13.545,3.839-8.778,3.838,8.778Zm-22.807,0,3.839-8.778,3.838,8.778Zm-22.808,0,3.84-8.778,3.838,8.778Z" transform="translate(-955 414.897)" fill="#27646a" stroke="#27646a" stroke-width="1"/>
  </g>
</svg>
