<svg id="Group_1401" data-name="Group 1401" xmlns="http://www.w3.org/2000/svg" width="80" height="65.313" viewBox="0 0 80 65.313">
  <path id="Path_1285" data-name="Path 1285" d="M-122.344-440.375h-1.6v-9.91A6.645,6.645,0,0,0-120-456.35a6.646,6.646,0,0,0-3.943-6.065v-16.3a18.058,18.058,0,0,0-18.048-18.027h-29a6.651,6.651,0,0,0-6.2-4.255,6.652,6.652,0,0,0-6.2,4.255h-11.93v-1.912A2.344,2.344,0,0,0-197.656-501,2.344,2.344,0,0,0-200-498.656v28.049a2.344,2.344,0,0,0,2.344,2.344,2.344,2.344,0,0,0,2.344-2.344v-1.948H-183.4a6.652,6.652,0,0,0,6.212,4.291,6.652,6.652,0,0,0,6.212-4.291h22.288v10.08a6.645,6.645,0,0,0-4.086,6.125,6.646,6.646,0,0,0,4.086,6.125v9.849h-1.742a2.344,2.344,0,0,0-2.344,2.344,2.344,2.344,0,0,0,2.344,2.344h28.084A2.344,2.344,0,0,0-120-438.031,2.344,2.344,0,0,0-122.344-440.375ZM-146.136-454.4a1.95,1.95,0,0,1-1.948-1.948,1.95,1.95,0,0,1,1.948-1.948h19.5a1.95,1.95,0,0,1,1.948,1.948,1.95,1.95,0,0,1-1.948,1.948Zm-49.176-37.655h11.487v14.815h-11.487Zm18.128,19.106a1.955,1.955,0,0,1-1.953-1.953v-19.455a1.955,1.955,0,0,1,1.953-1.953,1.955,1.955,0,0,1,1.953,1.953V-474.9A1.955,1.955,0,0,1-177.185-472.951Zm6.641-4.291v-14.815h28.553a13.365,13.365,0,0,1,13.36,13.34v15.733H-144v-11.346a2.916,2.916,0,0,0-2.913-2.912ZM-144-440.375v-9.34h15.368v9.34Z" transform="translate(200 501)" fill="#27646a"/>
</svg>
