<svg xmlns="http://www.w3.org/2000/svg" width="86" height="86" viewBox="0 0 86 86"><g transform="translate(1 1)"><path d="M42,0A42,42,0,1,0,84,42,42.048,42.048,0,0,0,42,0Zm0,81.2A39.2,39.2,0,1,1,81.2,42,39.245,39.245,0,0,1,42,81.2Z" fill="#27646a" stroke="#27646a" stroke-width="2"/><path d="M36.2,30.478v-14.2a1.4,1.4,0,1,0-2.8,0v14.2a5.593,5.593,0,0,0-4,4h-10a1.4,1.4,0,1,0,0,2.8h10a5.588,5.588,0,1,0,6.8-6.8Zm-1.4,8.2a2.8,2.8,0,1,1,2.8-2.8A2.8,2.8,0,0,1,34.8,38.679Z" transform="translate(7.2 5.952)" fill="#27646a" stroke="#27646a" stroke-width="2"/><path d="M30.4,11.079a1.4,1.4,0,0,0,1.4-1.4v-1.4a1.4,1.4,0,1,0-2.8,0v1.4A1.4,1.4,0,0,0,30.4,11.079Z" transform="translate(11.6 2.752)" fill="#27646a" stroke="#27646a" stroke-width="2"/><path d="M30.4,49.879a1.4,1.4,0,0,0-1.4,1.4v1.4a1.4,1.4,0,1,0,2.8,0v-1.4A1.4,1.4,0,0,0,30.4,49.879Z" transform="translate(11.6 19.952)" fill="#27646a" stroke="#27646a" stroke-width="2"/><path d="M52.8,28.879H51.4a1.4,1.4,0,1,0,0,2.8h1.4a1.4,1.4,0,1,0,0-2.8Z" transform="translate(20 11.552)" fill="#27646a" stroke="#27646a" stroke-width="2"/><path d="M9.8,28.879H8.4a1.4,1.4,0,1,0,0,2.8H9.8a1.4,1.4,0,1,0,0-2.8Z" transform="translate(2.8 11.552)" fill="#27646a" stroke="#27646a" stroke-width="2"/><path d="M45.249,13.732l-.99.99a1.4,1.4,0,1,0,1.98,1.98l.99-.99a1.4,1.4,0,0,0-1.98-1.98Z" transform="translate(17.539 5.329)" fill="#27646a" stroke="#27646a" stroke-width="2"/><path d="M14.844,44.138l-.99.99a1.4,1.4,0,1,0,1.98,1.98l.99-.99a1.4,1.4,0,0,0-1.98-1.98Z" transform="translate(5.378 17.491)" fill="#27646a" stroke="#27646a" stroke-width="2"/><path d="M46.239,44.138a1.4,1.4,0,0,0-1.98,1.98l.99.99a1.4,1.4,0,1,0,1.98-1.98Z" transform="translate(17.539 17.491)" fill="#27646a" stroke="#27646a" stroke-width="2"/><path d="M15.834,13.732a1.4,1.4,0,0,0-1.98,1.98l.99.99a1.4,1.4,0,1,0,1.98-1.98Z" transform="translate(5.378 5.329)" fill="#27646a" stroke="#27646a" stroke-width="2"/></g></svg>