<svg xmlns="http://www.w3.org/2000/svg" width="77.906" height="75.34" viewBox="0 0 77.906 75.34"><path d="M2647.1,14.111l14.081,8.961a1.827,1.827,0,0,0,.979.285h0a1.814,1.814,0,0,0,.448-.056,1.835,1.835,0,0,0,1.148-.883l4.885-8.791,5.174,9.786-4.916,2.95a1.828,1.828,0,0,0,.733,3.384l19.056,2.166a1.957,1.957,0,0,0,.2.011,1.838,1.838,0,0,0,1.645-1.031l9.111-18.807a1.828,1.828,0,0,0-2.471-2.427l-5.056,2.565-4.053-6.962A8.989,8.989,0,0,0,2680.129.5h-21.38a9.731,9.731,0,0,0-8.252,4.662l-3.969,6.449A1.835,1.835,0,0,0,2647.1,14.111Zm30.083,11.545a1.828,1.828,0,0,0,.674-2.42l-10.089-19.08H2680.1a5.4,5.4,0,0,1,4.8,2.907l4.939,8.488a1.83,1.83,0,0,0,2.4.707l1.76-.892-6.182,12.77-12.409-1.411Zm-26.6-13.661,3.035-4.932a6.048,6.048,0,0,1,5.131-2.907h4.858l2.893,5.807-4.991,8.983Z" transform="translate(-2628.334 -0.5)" fill="#27646a"/><path d="M2780.985,181.591l-4.132-8.255a1.83,1.83,0,0,0-2.452-.818c-.036.018-.073.038-.106.057l-15.361,8.961a1.837,1.837,0,0,0-.677,2.467l4.889,8.811h-10.427v-4.573a1.829,1.829,0,0,0-1.826-1.828h0a1.829,1.829,0,0,0-1.352.6l-12.8,14.081a1.825,1.825,0,0,0-.1,2.344l12.8,16.642a1.827,1.827,0,0,0,2.563.332,1.838,1.838,0,0,0,.712-1.447V215.67h8.4a8.8,8.8,0,0,0,8-4.765l8.946-15.328,2.663-4.3A9.633,9.633,0,0,0,2780.985,181.591Zm-30.094,14.878h22.42l-7.372,12.638-.018.034a5.16,5.16,0,0,1-4.773,2.875h-10.257a1.831,1.831,0,0,0-1.813,1.595l-8.611-11.19,8.6-9.453v1.674A1.83,1.83,0,0,0,2750.892,196.469Zm26.723-7.111-2.143,3.453h-8.143l-5.008-9.013,12.132-7.079,3.291,6.57.011.02A6,6,0,0,1,2777.615,189.358Z" transform="translate(-2704.259 -145.45)" fill="#27646a"/><path d="M2555.625,132.495a1.834,1.834,0,0,0-1.774-1.062l-20.481,1.28a1.828,1.828,0,0,0-.991,3.28l.008.016,6.039,3.745-4,8a9.713,9.713,0,0,0,.034,9.459l7.123,12.3,3.9,6.751a10.006,10.006,0,0,0,8.481,4.9h5.12a1.829,1.829,0,0,0,1.828-1.827V161.422a1.829,1.829,0,0,0-1.828-1.828h-8.616l5.678-9.853,4.843,1.865a1.828,1.828,0,0,0,2.315-2.471Zm-10.332,36.138,3.295-5.384h8.67v14.266h-3.287a6.284,6.284,0,0,1-5.326-3.076Zm-7.621-19.172,4.773-9.565a1.818,1.818,0,0,0-.673-2.375L2539.321,136l13.51-.841,5.268,11.415-2.1-.808h0a1.819,1.819,0,0,0-2.239.793l-10.6,18.39-5.53-9.554A6.073,6.073,0,0,1,2537.672,149.461Z" transform="translate(-2531.655 -110.95)" fill="#27646a"/></svg>