<svg xmlns="http://www.w3.org/2000/svg" width="92.097" height="92.125" viewBox="0 0 92.097 92.125">
  <g id="Group_1416" data-name="Group 1416" transform="translate(0.25 0.275)">
    <path id="Path_1298" data-name="Path 1298" d="M482.12-437h-5.91a1.477,1.477,0,0,0-1.477,1.477v4.432H470.3a1.477,1.477,0,0,0-1.477,1.477v1.477H442.231a1.479,1.479,0,0,0-1.322.817,1.476,1.476,0,0,0,.14,1.547l3.662,4.886-5,5a1.479,1.479,0,0,0-.358,1.511l1.268,3.8-5.081-4.355,4.781-4.781a1.476,1.476,0,0,0,0-2.089l-5.909-5.909a1.457,1.457,0,0,0-1.042-.434H406.774v-1.477a1.477,1.477,0,0,0-1.477-1.477h-4.432v-4.432A1.477,1.477,0,0,0,399.387-437h-5.91A1.477,1.477,0,0,0,392-435.523V-391.2a1.477,1.477,0,0,0,1.477,1.477h5.91a1.477,1.477,0,0,0,1.477-1.477v-4.432H405.3a1.477,1.477,0,0,0,1.477-1.477v-1.477h62.05v1.477a1.477,1.477,0,0,0,1.477,1.477h4.432v4.432a1.477,1.477,0,0,0,1.477,1.477h5.91A1.477,1.477,0,0,0,483.6-391.2v-44.321A1.477,1.477,0,0,0,482.12-437Zm-84.21,44.321h-2.955v-41.367h2.955Zm5.91-5.91h-2.955v-29.547h2.955Zm56.14-2.955V-404.5h2.955v-2.955h-2.955v-2.955h2.955v-2.955h-2.955v-2.955H457v2.955H454.05v2.955H457v2.955H454.05v2.955H457v2.955H406.774v-23.638h5.909v2.955h-2.955v2.955h2.955v2.955h-2.955v2.955h2.955v2.955h2.955v-2.955h2.955v-2.955h-2.955v-2.955h2.955v-2.955h-2.955v-2.955h17.117l4.432,4.432-4.865,4.865a1.474,1.474,0,0,0-.431,1.1,1.476,1.476,0,0,0,.514,1.065l10.342,8.864a1.475,1.475,0,0,0,.962.356,1.484,1.484,0,0,0,.824-.251,1.478,1.478,0,0,0,.578-1.693l-2.667-8,5.264-5.264a1.476,1.476,0,0,0,.137-1.931l-2.659-3.547h23.638v23.638Zm11.819,2.955v-29.547h2.955v29.547Zm8.864,5.91h-2.955v-41.367h2.955Z" transform="translate(-392 457.685)" fill="#27646a" stroke="#27646a" stroke-width="0.5"/>
    <path id="Path_1299" data-name="Path 1299" d="M546.773-522.849l2.089-2.089-7.82-7.82h6.775a1.477,1.477,0,0,0,1.477-1.477v-8.253l4.126,4.126a1.476,1.476,0,0,0,2.089,0l5.6-5.6v5.3a1.477,1.477,0,0,0,1.477,1.477h6.775l-4.865,4.865a1.476,1.476,0,0,0,0,2.089l4.865,4.865h-5.3v2.955h8.864a1.478,1.478,0,0,0,1.365-.912,1.477,1.477,0,0,0-.321-1.61l-6.342-6.342,6.342-6.342a1.477,1.477,0,0,0,.321-1.61,1.478,1.478,0,0,0-1.365-.912h-8.864v-7.387a1.478,1.478,0,0,0-.911-1.365,1.469,1.469,0,0,0-1.61.321l-7.081,7.081-5.6-5.6a1.469,1.469,0,0,0-1.61-.321,1.478,1.478,0,0,0-.911,1.365v10.342h-8.864a1.477,1.477,0,0,0-1.365.911,1.477,1.477,0,0,0,.32,1.61Z" transform="translate(-509.406 549.01)" fill="#27646a" stroke="#27646a" stroke-width="0.5"/>
    <path id="Path_1300" data-name="Path 1300" d="M602.156-195.986a1.537,1.537,0,0,0-2.583,0l-6.282,11.308A10.267,10.267,0,0,0,592-179.7v.324a9.412,9.412,0,0,0,2.776,6.7,8.55,8.55,0,0,0,6.088,2.522,8.55,8.55,0,0,0,6.088-2.522,9.412,9.412,0,0,0,2.776-6.7v-.523a9.5,9.5,0,0,0-1.192-4.6Zm4.618,16.61a6.477,6.477,0,0,1-1.91,4.611,5.8,5.8,0,0,1-8,0,6.477,6.477,0,0,1-1.91-4.611v-.324a7.312,7.312,0,0,1,.919-3.544l4.99-8.984,5.088,9.16a6.53,6.53,0,0,1,.821,3.167Z" transform="translate(-555.066 261.754)" fill="#27646a" stroke="#27646a" stroke-width="0.5"/>
  </g>
</svg>
