<svg xmlns="http://www.w3.org/2000/svg" width="98.431" height="98.457" viewBox="0 0 98.431 98.457">
  <g id="Group_1404" data-name="Group 1404" transform="translate(0.25 0.275)">
    <path id="Path_1298" data-name="Path 1298" d="M488.352-437h-6.318a1.579,1.579,0,0,0-1.58,1.58v4.739h-4.739a1.579,1.579,0,0,0-1.58,1.58v1.58H445.7a1.581,1.581,0,0,0-1.414.873,1.578,1.578,0,0,0,.15,1.654l3.916,5.224-5.35,5.35a1.581,1.581,0,0,0-.382,1.616l1.355,4.067-5.432-4.656,5.111-5.111a1.578,1.578,0,0,0,0-2.233l-6.318-6.318a1.558,1.558,0,0,0-1.114-.464H407.8v-1.58a1.579,1.579,0,0,0-1.58-1.58h-4.739v-4.739A1.579,1.579,0,0,0,399.9-437H393.58a1.579,1.579,0,0,0-1.58,1.58v47.386a1.579,1.579,0,0,0,1.58,1.58H399.9a1.579,1.579,0,0,0,1.58-1.58v-4.739h4.739a1.579,1.579,0,0,0,1.58-1.58v-1.58h66.34v1.58a1.579,1.579,0,0,0,1.58,1.58h4.739v4.739a1.579,1.579,0,0,0,1.58,1.58h6.318a1.579,1.579,0,0,0,1.58-1.58V-435.42A1.579,1.579,0,0,0,488.352-437Zm-90.033,47.386h-3.159v-44.227h3.159Zm6.318-6.318h-3.159v-31.591h3.159Zm60.022-3.159v-3.159h3.159v-3.159h-3.159v-3.159h3.159v-3.159h-3.159v-3.159H461.5v3.159H458.34v3.159H461.5v3.159H458.34v3.159H461.5v3.159H407.8v-25.273h6.318v3.159h-3.159v3.159h3.159v3.159h-3.159v3.159h3.159v3.159h3.159v-3.159h3.159v-3.159h-3.159v-3.159h3.159V-421.2h-3.159v-3.159h18.3l4.739,4.739-5.2,5.2a1.576,1.576,0,0,0-.461,1.177,1.578,1.578,0,0,0,.55,1.139l11.057,9.477a1.577,1.577,0,0,0,1.028.381,1.587,1.587,0,0,0,.881-.269,1.58,1.58,0,0,0,.618-1.81l-2.851-8.55,5.628-5.628a1.578,1.578,0,0,0,.147-2.064l-2.843-3.792h25.273v25.273Zm12.636,3.159v-31.591h3.159v31.591Zm9.477,6.318h-3.159v-44.227h3.159Z" transform="translate(-392 459.116)" fill="#27646a" stroke="#27646a" stroke-width="0.5"/>
    <path id="Path_1299" data-name="Path 1299" d="M547.518-521.04l2.233-2.233-8.36-8.36h7.244a1.579,1.579,0,0,0,1.58-1.58v-8.823l4.412,4.412a1.578,1.578,0,0,0,2.233,0l5.991-5.991v5.664a1.579,1.579,0,0,0,1.58,1.58h7.244l-5.2,5.2a1.578,1.578,0,0,0,0,2.233l5.2,5.2H566.01v3.159h9.477a1.58,1.58,0,0,0,1.459-.975,1.579,1.579,0,0,0-.343-1.722l-6.781-6.781,6.781-6.781a1.579,1.579,0,0,0,.343-1.722,1.58,1.58,0,0,0-1.459-.975H566.01v-7.9a1.58,1.58,0,0,0-.974-1.459,1.57,1.57,0,0,0-1.722.343l-7.571,7.571-5.991-5.991a1.571,1.571,0,0,0-1.722-.343,1.58,1.58,0,0,0-.974,1.459v11.057h-9.477a1.58,1.58,0,0,0-1.459.975,1.579,1.579,0,0,0,.343,1.722Z" transform="translate(-507.567 549.01)" fill="#27646a" stroke="#27646a" stroke-width="0.5"/>
    <path id="Path_1300" data-name="Path 1300" d="M602.858-195.938a1.643,1.643,0,0,0-2.761,0l-6.716,12.09a10.977,10.977,0,0,0-1.38,5.323v.346a10.063,10.063,0,0,0,2.968,7.163,9.141,9.141,0,0,0,6.509,2.7,9.141,9.141,0,0,0,6.509-2.7,10.062,10.062,0,0,0,2.968-7.163v-.559a10.156,10.156,0,0,0-1.275-4.92Zm4.938,17.759a6.925,6.925,0,0,1-2.042,4.93,6.2,6.2,0,0,1-8.552,0,6.925,6.925,0,0,1-2.042-4.93v-.346a7.818,7.818,0,0,1,.982-3.789l5.336-9.605,5.44,9.793a6.982,6.982,0,0,1,.878,3.387Z" transform="translate(-552.512 266.253)" fill="#27646a" stroke="#27646a" stroke-width="0.5"/>
  </g>
</svg>
