<svg xmlns="http://www.w3.org/2000/svg" width="68.783" height="77.005" viewBox="0 0 68.783 77.005"><path d="M3314.606,16.08a34.655,34.655,0,0,1-6.655-1.51,1.826,1.826,0,1,0-1.161,3.462,38.3,38.3,0,0,0,7.358,1.671,6.16,6.16,0,0,1,5.3,6.864,154.085,154.085,0,0,1-3.508,19.229c-1.96,7.564-4.239,12.8-6.775,15.575a108.342,108.342,0,0,1-16.694,14.3,6.438,6.438,0,0,1-7.433,0,108.377,108.377,0,0,1-16.694-14.3c-2.536-2.772-4.816-8.012-6.774-15.575a154.178,154.178,0,0,1-3.509-19.229,6.161,6.161,0,0,1,5.3-6.864,36.927,36.927,0,0,0,22.37-11.26,4.176,4.176,0,0,1,6.04,0,37.035,37.035,0,0,0,10.3,7.634,1.826,1.826,0,0,0,1.633-3.267,33.4,33.4,0,0,1-9.287-6.885,7.827,7.827,0,0,0-11.33,0,33.315,33.315,0,0,1-20.183,10.154,9.82,9.82,0,0,0-8.471,10.929c1.039,8.524,4.212,29.176,11.214,36.828a112.023,112.023,0,0,0,17.278,14.816,10.093,10.093,0,0,0,11.653,0,112.016,112.016,0,0,0,17.278-14.816c7-7.651,10.175-28.3,11.214-36.828A9.82,9.82,0,0,0,3314.606,16.08Z" transform="translate(-3254.367 -3.5)" fill="#27646a"/><path d="M3329.387,63.9a40.585,40.585,0,0,1-19.1,9.264,5,5,0,0,0-3.991,5.586,157.333,157.333,0,0,0,2.853,15.841c2.345,9.056,4.658,12.551,5.827,13.829,3.734,4.08,10.629,9.506,14.407,12.378a4.92,4.92,0,0,0,5.937,0c3.778-2.872,10.673-8.3,14.406-12.377,1.169-1.277,3.481-4.772,5.827-13.829a157.671,157.671,0,0,0,2.853-15.841,5,5,0,0,0-3.992-5.586,40.59,40.59,0,0,1-19.1-9.264A4.56,4.56,0,0,0,3329.387,63.9Zm22.635,29.775c-2.348,9.065-4.565,11.82-4.985,12.28-3.673,4.014-10.96,9.683-13.924,11.935a1.256,1.256,0,0,1-1.516,0c-2.962-2.251-10.248-7.92-13.922-11.935-.42-.459-2.637-3.212-4.987-12.279a154.2,154.2,0,0,1-2.769-15.419,1.344,1.344,0,0,1,1.065-1.507,44.194,44.194,0,0,0,20.793-10.088.89.89,0,0,1,1.156,0,44.189,44.189,0,0,0,20.792,10.088,1.344,1.344,0,0,1,1.066,1.508h0A153.875,153.875,0,0,1,3352.022,93.68Z" transform="translate(-3297.964 -53.331)" fill="#27646a"/><path d="M3407.2,187.81l-8.561,8.482-5.374-4.373a5.319,5.319,0,0,0-3.711-1.11,4.314,4.314,0,0,0-2.971,1.814,4.7,4.7,0,0,0,.7,6.646l3.21,2.611a1.826,1.826,0,1,0,2.305-2.833l-3.21-2.612a1.043,1.043,0,0,1-.139-1.552.943.943,0,0,1,.629-.427,1.325,1.325,0,0,1,.881.293l6.647,5.409a1.824,1.824,0,0,0,2.438-.12l9.727-9.636a1.086,1.086,0,1,1,1.529,1.544l-11.578,11.471a1.041,1.041,0,0,1-1.457.077l-1.84-1.5a1.826,1.826,0,1,0-2.3,2.833l1.839,1.5a4.739,4.739,0,0,0,6.325-.309l11.585-11.477a4.738,4.738,0,1,0-6.669-6.733Z" transform="translate(-3364.556 -157.211)" fill="#27646a"/></svg>