<svg id="Group_1405" data-name="Group 1405" xmlns="http://www.w3.org/2000/svg" width="63.298" height="76.35" viewBox="0 0 63.298 76.35">
  <path id="Path_1301" data-name="Path 1301" d="M-673.357-543l-4.521,4.009,7.536,8.545h-15.81a18.086,18.086,0,0,0-18.085,18.085v16.578h6.028V-512.36a12.057,12.057,0,0,1,12.057-12.057h15.9l-7.536,8.545,4.521,4.009,13.76-15.568Z" transform="translate(704.238 543)" fill="#27646a"/>
  <path id="Path_1302" data-name="Path 1302" d="M-541.022-347.64v16.578A12.058,12.058,0,0,1-553.079-319h-15.9l7.536-8.545-4.521-4.009-13.76,15.568,13.835,15.568,4.521-4.009-7.536-8.545h15.825a18.086,18.086,0,0,0,18.085-18.085V-347.64Z" transform="translate(598.293 376.772)" fill="#27646a"/>
</svg>
