<svg id="Group_1423" data-name="Group 1423" xmlns="http://www.w3.org/2000/svg" width="65.463" height="73.287" viewBox="0 0 65.463 73.287">
  <path id="Path_456" data-name="Path 456" d="M3311.7,15.473a32.98,32.98,0,0,1-6.334-1.437,1.738,1.738,0,1,0-1.1,3.3,36.444,36.444,0,0,0,7,1.59,5.863,5.863,0,0,1,5.047,6.533,146.7,146.7,0,0,1-3.338,18.3c-1.866,7.2-4.035,12.186-6.448,14.823a103.115,103.115,0,0,1-15.888,13.611,6.128,6.128,0,0,1-7.074,0,103.139,103.139,0,0,1-15.888-13.611c-2.414-2.638-4.583-7.625-6.447-14.823a146.7,146.7,0,0,1-3.339-18.3,5.864,5.864,0,0,1,5.048-6.533,35.146,35.146,0,0,0,21.29-10.716,3.974,3.974,0,0,1,5.749,0,35.255,35.255,0,0,0,9.8,7.266,1.738,1.738,0,0,0,1.554-3.109,31.792,31.792,0,0,1-8.838-6.553,7.449,7.449,0,0,0-10.783,0,31.706,31.706,0,0,1-19.208,9.664,9.347,9.347,0,0,0-8.062,10.4c.989,8.112,4.009,27.768,10.673,35.05a106.615,106.615,0,0,0,16.443,14.1,9.607,9.607,0,0,0,11.091,0,106.611,106.611,0,0,0,16.444-14.1c6.664-7.282,9.684-26.937,10.673-35.05A9.345,9.345,0,0,0,3311.7,15.473Z" transform="translate(-3254.367 -3.5)" fill="#27646a"/>
  <path id="Path_457" data-name="Path 457" d="M3328.271,63.851a38.627,38.627,0,0,1-18.174,8.817,4.757,4.757,0,0,0-3.8,5.317,149.672,149.672,0,0,0,2.715,15.076c2.232,8.619,4.433,11.946,5.546,13.161,3.554,3.883,10.116,9.047,13.711,11.78a4.682,4.682,0,0,0,5.65,0c3.6-2.733,10.158-7.9,13.711-11.78,1.113-1.216,3.313-4.542,5.546-13.161a150.133,150.133,0,0,0,2.716-15.077,4.757,4.757,0,0,0-3.8-5.317,38.629,38.629,0,0,1-18.174-8.817A4.34,4.34,0,0,0,3328.271,63.851Zm21.542,28.338c-2.235,8.627-4.345,11.249-4.745,11.687-3.5,3.82-10.432,9.216-13.251,11.359a1.2,1.2,0,0,1-1.443,0c-2.819-2.142-9.753-7.538-13.25-11.359-.4-.437-2.51-3.057-4.746-11.687a146.865,146.865,0,0,1-2.635-14.675,1.279,1.279,0,0,1,1.014-1.435,42.058,42.058,0,0,0,19.79-9.6.848.848,0,0,1,1.1,0,42.054,42.054,0,0,0,19.789,9.6,1.279,1.279,0,0,1,1.014,1.435h0A146.62,146.62,0,0,1,3349.813,92.19Z" transform="translate(-3298.364 -53.788)" fill="#27646a"/>
  <path id="Path_458" data-name="Path 458" d="M3406.151,187.744,3398,195.816l-5.115-4.162a5.062,5.062,0,0,0-3.531-1.057,4.106,4.106,0,0,0-2.828,1.727,4.472,4.472,0,0,0,.666,6.325l3.055,2.485a1.738,1.738,0,1,0,2.194-2.7l-3.055-2.486a.993.993,0,0,1-.132-1.477.9.9,0,0,1,.6-.406,1.262,1.262,0,0,1,.839.279l6.326,5.148a1.735,1.735,0,0,0,2.32-.114l9.257-9.171a1.034,1.034,0,1,1,1.455,1.469L3399.033,202.6a.991.991,0,0,1-1.387.074l-1.751-1.424a1.738,1.738,0,1,0-2.193,2.7l1.75,1.424a4.51,4.51,0,0,0,6.02-.294l11.026-10.923a4.51,4.51,0,0,0-6.347-6.408Z" transform="translate(-3365.567 -158.622)" fill="#27646a"/>
</svg>
