<svg xmlns="http://www.w3.org/2000/svg" width="69.537" height="65.191" viewBox="0 0 69.537 65.191">
  <g id="Group_228" data-name="Group 228" transform="translate(0)">
    <path id="Path_459" data-name="Path 459" d="M568.307,364.113a10.465,10.465,0,0,0-6.595,2.224,6.915,6.915,0,0,1-8.652,0,10.891,10.891,0,0,0-13.19,0,6.914,6.914,0,0,1-8.652,0,10.89,10.89,0,0,0-13.19,0,6.914,6.914,0,0,1-8.652,0,10.461,10.461,0,0,0-6.594-2.224,2.006,2.006,0,0,0-2.006,2.006v11.9a2.006,2.006,0,0,0,2.006,2.006h65.526a2.006,2.006,0,0,0,2.006-2.006v-11.9A2.006,2.006,0,0,0,568.307,364.113Zm-2.006,11.9H504.787v-7.621a8.284,8.284,0,0,1,2.32,1.257,10.889,10.889,0,0,0,13.189,0,6.914,6.914,0,0,1,8.652,0,10.89,10.89,0,0,0,13.19,0,6.915,6.915,0,0,1,8.652,0,10.89,10.89,0,0,0,13.19,0,8.28,8.28,0,0,1,2.32-1.257Z" transform="translate(-500.775 -314.828)" fill="#27646a"/>
    <path id="Path_460" data-name="Path 460" d="M596.39,40.913c-1.382,1.109-3.275,2.628-3.275,5.617a2.006,2.006,0,1,0,4.012,0c0-.972.487-1.455,1.775-2.488,1.382-1.109,3.275-2.628,3.275-5.617s-1.893-4.508-3.275-5.617c-1.288-1.033-1.775-1.516-1.775-2.488s.487-1.454,1.774-2.488c1.383-1.109,3.276-2.628,3.276-5.617s-1.893-4.507-3.276-5.617c-1.288-1.033-1.774-1.516-1.774-2.488s.487-1.455,1.774-2.488c1.383-1.109,3.276-2.629,3.276-5.617a2.006,2.006,0,0,0-4.012,0c0,.972-.486,1.454-1.774,2.488-1.383,1.109-3.276,2.628-3.276,5.616s1.893,4.508,3.276,5.617c1.288,1.033,1.774,1.516,1.774,2.488s-.486,1.454-1.775,2.488c-1.382,1.109-3.275,2.628-3.275,5.617s1.893,4.508,3.275,5.617c1.288,1.034,1.775,1.516,1.775,2.488S597.678,39.879,596.39,40.913Z" transform="translate(-580.477 -4)" fill="#27646a"/>
    <path id="Path_461" data-name="Path 461" d="M682.125,40.913c-1.383,1.109-3.275,2.628-3.275,5.617a2.006,2.006,0,1,0,4.012,0c0-.972.487-1.455,1.775-2.488,1.382-1.109,3.275-2.628,3.275-5.617s-1.893-4.508-3.275-5.617c-1.287-1.033-1.775-1.516-1.775-2.488s.487-1.454,1.775-2.488c1.382-1.109,3.275-2.628,3.275-5.617s-1.893-4.507-3.275-5.617c-1.287-1.033-1.775-1.516-1.775-2.488s.487-1.455,1.775-2.488c1.382-1.109,3.275-2.629,3.275-5.617a2.006,2.006,0,1,0-4.012,0c0,.972-.487,1.454-1.774,2.488-1.382,1.109-3.275,2.628-3.275,5.617s1.893,4.507,3.275,5.616c1.288,1.034,1.774,1.516,1.774,2.488s-.487,1.454-1.774,2.488c-1.383,1.109-3.275,2.628-3.275,5.617s1.893,4.508,3.275,5.617c1.288,1.034,1.774,1.516,1.774,2.488S683.412,39.879,682.125,40.913Z" transform="translate(-654.478 -4)" fill="#27646a"/>
    <path id="Path_462" data-name="Path 462" d="M767.862,40.913c-1.382,1.109-3.275,2.628-3.275,5.617a2.006,2.006,0,0,0,4.012,0c0-.972.486-1.455,1.774-2.488,1.382-1.109,3.275-2.628,3.275-5.617s-1.893-4.508-3.275-5.617c-1.288-1.033-1.774-1.516-1.774-2.488s.486-1.454,1.774-2.488c1.383-1.109,3.275-2.628,3.275-5.617s-1.893-4.507-3.275-5.617c-1.288-1.033-1.774-1.516-1.774-2.488s.486-1.455,1.774-2.488c1.383-1.109,3.275-2.629,3.275-5.617a2.006,2.006,0,1,0-4.012,0c0,.972-.487,1.454-1.774,2.488-1.383,1.109-3.275,2.628-3.275,5.617s1.893,4.507,3.275,5.616c1.288,1.034,1.774,1.516,1.774,2.488s-.487,1.454-1.775,2.488c-1.382,1.109-3.275,2.628-3.275,5.617s1.893,4.508,3.275,5.617c1.288,1.034,1.775,1.516,1.775,2.488S769.15,39.879,767.862,40.913Z" transform="translate(-728.482 -4)" fill="#27646a"/>
    <path id="Path_463" data-name="Path 463" d="M853.6,40.913c-1.382,1.109-3.275,2.628-3.275,5.617a2.006,2.006,0,1,0,4.011,0c0-.972.487-1.455,1.774-2.488,1.382-1.109,3.275-2.628,3.275-5.617s-1.893-4.508-3.275-5.617c-1.287-1.033-1.774-1.516-1.774-2.488s.487-1.454,1.774-2.488c1.382-1.109,3.275-2.628,3.275-5.617s-1.893-4.507-3.275-5.617c-1.287-1.033-1.774-1.516-1.774-2.488s.487-1.455,1.774-2.488c1.382-1.109,3.275-2.629,3.275-5.617a2.006,2.006,0,1,0-4.012,0c0,.972-.487,1.454-1.774,2.488-1.383,1.109-3.275,2.628-3.275,5.617s1.893,4.507,3.275,5.616c1.288,1.034,1.775,1.516,1.775,2.488s-.487,1.454-1.775,2.488c-1.382,1.109-3.275,2.628-3.275,5.617s1.893,4.508,3.275,5.617c1.288,1.034,1.775,1.516,1.775,2.488S854.885,39.879,853.6,40.913Z" transform="translate(-802.483 -4)" fill="#27646a"/>
  </g>
</svg>
