<svg id="Group_1424" data-name="Group 1424" xmlns="http://www.w3.org/2000/svg" width="58.646" height="70.738" viewBox="0 0 58.646 70.738">
  <path id="Path_1301" data-name="Path 1301" d="M-675.627-543l-4.189,3.714,6.982,7.917h-14.648a16.757,16.757,0,0,0-16.756,16.756v15.36h5.585v-15.36a11.171,11.171,0,0,1,11.171-11.171h14.731l-6.982,7.917,4.189,3.714,12.749-14.424Z" transform="translate(704.238 543)" fill="#27646a"/>
  <path id="Path_1302" data-name="Path 1302" d="M-543.867-347.64v15.36a11.171,11.171,0,0,1-11.171,11.171h-14.731l6.982-7.917-4.189-3.714-12.749,14.424,12.818,14.424,4.189-3.714-6.982-7.917h14.662a16.757,16.757,0,0,0,16.756-16.756v-15.36Z" transform="translate(596.928 374.631)" fill="#27646a"/>
</svg>
