<svg xmlns="http://www.w3.org/2000/svg" width="88.314" height="57.172" viewBox="0 0 88.314 57.172">
  <g id="Group_1421" data-name="Group 1421" transform="translate(0 -90)">
    <path id="Path_1303" data-name="Path 1303" d="M70.651,355.449a15.946,15.946,0,0,0-10.32,3.576c-2.093,1.471-3.747,2.634-7.344,2.634s-5.25-1.162-7.343-2.634a15.942,15.942,0,0,0-10.32-3.576,15.946,15.946,0,0,0-10.319,3.576c-2.093,1.471-3.746,2.634-7.343,2.634s-5.25-1.162-7.343-2.634A15.949,15.949,0,0,0,0,355.449v5.175c3.6,0,5.25,1.162,7.343,2.635a15.949,15.949,0,0,0,10.32,3.575,15.947,15.947,0,0,0,10.319-3.575c2.093-1.472,3.746-2.635,7.343-2.635s5.25,1.162,7.344,2.635a16.682,16.682,0,0,0,20.639,0c2.093-1.472,3.746-2.635,7.344-2.635s5.25,1.162,7.344,2.635a15.946,15.946,0,0,0,10.32,3.575v-5.175c-3.6,0-5.251-1.162-7.344-2.634A15.95,15.95,0,0,0,70.651,355.449Z" transform="translate(0 -219.662)" fill="#27646a"/>
    <path id="Path_1304" data-name="Path 1304" d="M70.651,178.484a15.946,15.946,0,0,0-10.32,3.575c-2.093,1.472-3.747,2.634-7.344,2.634s-5.25-1.163-7.343-2.634a15.946,15.946,0,0,0-10.32-3.575,15.946,15.946,0,0,0-10.319,3.575c-2.093,1.472-3.746,2.634-7.343,2.634s-5.25-1.163-7.343-2.634A15.949,15.949,0,0,0,0,178.484v5.175c3.6,0,5.25,1.162,7.343,2.634a15.945,15.945,0,0,0,10.32,3.576,15.946,15.946,0,0,0,10.319-3.576c2.093-1.471,3.746-2.634,7.343-2.634s5.25,1.162,7.344,2.634a16.679,16.679,0,0,0,20.639,0c2.093-1.471,3.746-2.634,7.344-2.634s5.25,1.162,7.344,2.634a15.942,15.942,0,0,0,10.32,3.576v-5.175c-3.6,0-5.251-1.163-7.344-2.634A15.95,15.95,0,0,0,70.651,178.484Z" transform="translate(0 -73.221)" fill="#27646a"/>
    <path id="Path_1305" data-name="Path 1305" d="M70.651,266.969a15.946,15.946,0,0,0-10.32,3.575c-2.093,1.472-3.747,2.635-7.344,2.635s-5.25-1.163-7.343-2.635a15.946,15.946,0,0,0-10.32-3.575,15.946,15.946,0,0,0-10.319,3.575c-2.093,1.472-3.746,2.635-7.343,2.635s-5.25-1.163-7.343-2.635A15.949,15.949,0,0,0,0,266.969v5.175c3.6,0,5.25,1.162,7.343,2.634a15.948,15.948,0,0,0,10.32,3.576,15.946,15.946,0,0,0,10.319-3.576c2.093-1.471,3.746-2.634,7.343-2.634s5.25,1.162,7.344,2.634a16.679,16.679,0,0,0,20.639,0c2.093-1.471,3.746-2.634,7.344-2.634s5.25,1.162,7.344,2.634a15.946,15.946,0,0,0,10.32,3.576v-5.175c-3.6,0-5.251-1.163-7.344-2.635A15.95,15.95,0,0,0,70.651,266.969Z" transform="translate(0 -146.444)" fill="#27646a"/>
    <path id="Path_1306" data-name="Path 1306" d="M80.971,93.576a16.679,16.679,0,0,0-20.639,0c-2.093,1.472-3.747,2.634-7.344,2.634s-5.25-1.162-7.343-2.634A15.943,15.943,0,0,0,35.325,90a15.943,15.943,0,0,0-10.319,3.576c-2.093,1.472-3.746,2.634-7.343,2.634s-5.25-1.162-7.343-2.634A15.946,15.946,0,0,0,0,90v5.175c3.6,0,5.25,1.162,7.343,2.634a15.946,15.946,0,0,0,10.32,3.576,15.944,15.944,0,0,0,10.319-3.576c2.093-1.472,3.746-2.634,7.343-2.634s5.25,1.162,7.344,2.634a16.679,16.679,0,0,0,20.639,0c2.093-1.472,3.746-2.634,7.344-2.634s5.25,1.162,7.344,2.634a15.943,15.943,0,0,0,10.32,3.576V96.21C84.717,96.21,83.064,95.047,80.971,93.576Z" fill="#27646a"/>
  </g>
</svg>
