<svg id="Group_234" data-name="Group 234" xmlns="http://www.w3.org/2000/svg" width="54.146" height="78.592" viewBox="0 0 54.146 78.592">
  <path id="Path_482" data-name="Path 482" d="M1062.045,28.278V8.635a1.774,1.774,0,0,0-3.548,0v20.53a1.776,1.776,0,0,0,.745,1.445,15.666,15.666,0,1,1-18.156,0,1.777,1.777,0,0,0,.745-1.445V-4.118a8.343,8.343,0,0,1,8.333-8.334,8.343,8.343,0,0,1,8.334,8.334V4.04a1.774,1.774,0,1,0,3.548,0V-4.118A11.9,11.9,0,0,0,1050.163-16,11.9,11.9,0,0,0,1038.28-4.118v32.4a19.214,19.214,0,1,0,23.764,0Z" transform="translate(-1030.949 16)" fill="#27646a"/>
  <path id="Path_483" data-name="Path 483" d="M1083.2,85.957a9.467,9.467,0,0,1-5.461-1.723,1.774,1.774,0,1,0-2.038,2.9,13.083,13.083,0,0,0,20.587-10.721,13.129,13.129,0,0,0-5.505-10.669l-1.827-1.3V28.922a5.756,5.756,0,1,0-11.512,0V64.447l-1.826,1.3a13.082,13.082,0,0,0-3.266,17.984,1.774,1.774,0,0,0,2.939-1.988,9.533,9.533,0,0,1,2.385-13.106l2.571-1.832a1.777,1.777,0,0,0,.746-1.445V61.552h4.415v3.809a1.776,1.776,0,0,0,.745,1.445l2.571,1.832a9.54,9.54,0,0,1-5.524,17.318Zm-2.207-54.281V28.922a2.207,2.207,0,1,1,4.415,0v2.754Zm0,8.776V35.224h4.415v5.227Zm0,8.776V44h4.415v5.228Zm4.415,3.549V58h-4.415V52.777Z" transform="translate(-1063.988 -17.04)" fill="#27646a"/>
  <path id="Path_484" data-name="Path 484" d="M1299.915,67.646c-1.59,0-1.874,1.017-1.921,1.465-.171,1.335-.368,2.845-3,2.845-2.254,0-3.259-1.059-3.259-3.433V59.756c0-2.343,1.008-3.434,3.172-3.434,1.986,0,2.995.877,3.086,2.686.04.729.566,1.508,1.924,1.508,1.314,0,1.926-.649,1.926-2.042,0-3.4-2.876-5.77-6.994-5.77-4.361,0-6.965,2.636-6.965,7.052v8.767a6.929,6.929,0,0,0,2.074,5.436,7.166,7.166,0,0,0,4.862,1.616c4.135,0,7.023-2.409,7.023-5.858C1301.84,68.323,1301.21,67.646,1299.915,67.646Z" transform="translate(-1247.694 -41.958)" fill="#27646a"/>
  <path id="Path_485" data-name="Path 485" d="M1259.046,12.141a4.378,4.378,0,1,0-4.378,4.378A4.383,4.383,0,0,0,1259.046,12.141Zm-3.549,0a.829.829,0,1,1-.829-.829A.83.83,0,0,1,1255.5,12.141Z" transform="translate(-1215.982 -4.046)" fill="#27646a"/>
</svg>
