<svg xmlns="http://www.w3.org/2000/svg" width="67.439" height="63.226" viewBox="0 0 67.439 63.226"><path d="M566.269,364.113a10.149,10.149,0,0,0-6.4,2.157,6.706,6.706,0,0,1-8.391,0,10.562,10.562,0,0,0-12.792,0,6.705,6.705,0,0,1-8.391,0,10.562,10.562,0,0,0-12.792,0,6.705,6.705,0,0,1-8.391,0,10.146,10.146,0,0,0-6.4-2.157,1.946,1.946,0,0,0-1.945,1.945V377.6a1.945,1.945,0,0,0,1.945,1.945h63.548a1.945,1.945,0,0,0,1.945-1.945V366.058A1.945,1.945,0,0,0,566.269,364.113Zm-1.945,11.537H504.666v-7.391a8.033,8.033,0,0,1,2.25,1.219,10.561,10.561,0,0,0,12.791,0,6.706,6.706,0,0,1,8.391,0,10.561,10.561,0,0,0,12.792,0,6.707,6.707,0,0,1,8.391,0,10.562,10.562,0,0,0,12.792,0,8.028,8.028,0,0,1,2.25-1.219Z" transform="translate(-500.775 -316.315)" fill="#27646a"/><path d="M596.291,39.8c-1.34,1.075-3.176,2.549-3.176,5.447a1.945,1.945,0,1,0,3.891,0c0-.943.472-1.411,1.721-2.413,1.34-1.076,3.176-2.549,3.176-5.447s-1.836-4.372-3.176-5.448c-1.249-1-1.721-1.47-1.721-2.413s.472-1.41,1.721-2.413c1.341-1.076,3.177-2.549,3.177-5.447s-1.836-4.371-3.177-5.447c-1.249-1-1.721-1.47-1.721-2.413s.472-1.411,1.721-2.413c1.341-1.076,3.177-2.549,3.177-5.447a1.945,1.945,0,0,0-3.891,0c0,.943-.472,1.41-1.72,2.413-1.341,1.075-3.177,2.549-3.177,5.447s1.836,4.372,3.177,5.447c1.249,1,1.72,1.47,1.72,2.413s-.472,1.41-1.721,2.413c-1.34,1.076-3.176,2.549-3.176,5.447s1.836,4.372,3.176,5.448c1.249,1,1.721,1.47,1.721,2.413S597.54,38.8,596.291,39.8Z" transform="translate(-580.859 -4)" fill="#27646a"/><path d="M682.026,39.8c-1.341,1.075-3.177,2.549-3.177,5.447a1.945,1.945,0,1,0,3.891,0c0-.943.472-1.411,1.721-2.413,1.34-1.076,3.176-2.549,3.176-5.447s-1.836-4.372-3.176-5.448c-1.249-1-1.721-1.47-1.721-2.413s.472-1.41,1.721-2.413c1.34-1.076,3.176-2.549,3.176-5.447s-1.836-4.371-3.176-5.447c-1.249-1-1.721-1.47-1.721-2.413s.472-1.411,1.721-2.413c1.34-1.076,3.176-2.549,3.176-5.447a1.945,1.945,0,1,0-3.891,0c0,.943-.472,1.41-1.721,2.413-1.34,1.076-3.177,2.549-3.177,5.447s1.836,4.371,3.177,5.447c1.249,1,1.721,1.47,1.721,2.413s-.472,1.41-1.721,2.413c-1.341,1.076-3.177,2.549-3.177,5.447s1.836,4.372,3.177,5.448c1.249,1,1.721,1.47,1.721,2.413S683.274,38.8,682.026,39.8Z" transform="translate(-655.213 -4)" fill="#27646a"/><path d="M767.763,39.8c-1.34,1.075-3.176,2.549-3.176,5.447a1.945,1.945,0,1,0,3.891,0c0-.943.472-1.411,1.721-2.413,1.34-1.076,3.176-2.549,3.176-5.447s-1.836-4.372-3.176-5.448c-1.249-1-1.721-1.47-1.721-2.413s.472-1.41,1.72-2.413c1.341-1.076,3.177-2.549,3.177-5.447s-1.836-4.371-3.177-5.447c-1.249-1-1.72-1.47-1.72-2.413s.472-1.411,1.72-2.413c1.341-1.076,3.177-2.549,3.177-5.447a1.945,1.945,0,1,0-3.891,0c0,.943-.472,1.41-1.721,2.413-1.341,1.076-3.177,2.549-3.177,5.447s1.836,4.371,3.177,5.447c1.249,1,1.721,1.47,1.721,2.413s-.472,1.41-1.721,2.413c-1.34,1.076-3.176,2.549-3.176,5.447s1.836,4.372,3.176,5.448c1.249,1,1.721,1.47,1.721,2.413S769.012,38.8,767.763,39.8Z" transform="translate(-729.571 -4)" fill="#27646a"/><path d="M853.5,39.8c-1.34,1.075-3.176,2.549-3.176,5.447a1.945,1.945,0,1,0,3.89,0c0-.943.472-1.411,1.721-2.413,1.34-1.076,3.176-2.549,3.176-5.447s-1.836-4.372-3.176-5.448c-1.249-1-1.721-1.47-1.721-2.413s.472-1.41,1.721-2.413c1.34-1.076,3.176-2.549,3.176-5.447s-1.836-4.371-3.176-5.447c-1.249-1-1.721-1.47-1.721-2.413s.472-1.411,1.721-2.413c1.34-1.076,3.176-2.549,3.176-5.447a1.945,1.945,0,1,0-3.891,0c0,.943-.472,1.41-1.721,2.413-1.341,1.076-3.177,2.549-3.177,5.447s1.836,4.371,3.176,5.447c1.249,1,1.721,1.47,1.721,2.413s-.472,1.41-1.721,2.413c-1.34,1.076-3.176,2.549-3.176,5.447s1.836,4.372,3.176,5.448c1.249,1,1.721,1.47,1.721,2.413S854.747,38.8,853.5,39.8Z" transform="translate(-803.926 -4)" fill="#27646a"/></svg>