<svg id="Group_233" data-name="Group 233" xmlns="http://www.w3.org/2000/svg" width="64.593" height="64.096" viewBox="0 0 64.593 64.096">
  <path id="Path_478" data-name="Path 478" d="M1525.955-3.911a1.847,1.847,0,0,0-1.524.8C1523.638-1.953,1505,25.349,1505,39.232a20.955,20.955,0,0,0,41.91,0c0-13.883-18.638-41.185-19.431-42.34A1.847,1.847,0,0,0,1525.955-3.911Zm17.258,43.143a17.258,17.258,0,1,1-34.517,0c0-10.55,12.788-31.1,17.258-37.953C1530.426,8.135,1543.213,28.681,1543.213,39.232Z" transform="translate(-1491.641 3.911)" fill="#27646a"/>
  <path id="Path_479" data-name="Path 479" d="M1648.953,321.392a1.85,1.85,0,0,0,1.848,1.848,14.2,14.2,0,0,0,14.188-14.187,1.848,1.848,0,0,0-3.7,0,10.5,10.5,0,0,1-10.492,10.491A1.85,1.85,0,0,0,1648.953,321.392Z" transform="translate(-1616.487 -265.91)" fill="#27646a"/>
  <path id="Path_480" data-name="Path 480" d="M1809.229,12.448h-2.419v-2.42a1.848,1.848,0,0,0-3.7,0v2.42h-2.42a1.848,1.848,0,0,0,0,3.7h2.42v2.42a1.848,1.848,0,0,0,3.7,0v-2.42h2.419a1.848,1.848,0,0,0,0-3.7Z" transform="translate(-1746.484 -6.575)" fill="#27646a"/>
  <path id="Path_481" data-name="Path 481" d="M1414.738,341.393h-2.42v-2.42a1.848,1.848,0,0,0-3.7,0v2.42h-2.42a1.848,1.848,0,0,0,0,3.7h2.42v2.42a1.848,1.848,0,1,0,3.7,0v-2.42h2.42a1.848,1.848,0,1,0,0-3.7Z" transform="translate(-1404.354 -291.859)" fill="#27646a"/>
</svg>
