<svg xmlns="http://www.w3.org/2000/svg" width="86.907" height="92.865" viewBox="0 0 86.907 92.865"><g transform="translate(0.25 0.25)"><path d="M1735.134-308.4h-7.448a1.489,1.489,0,0,1-1.49-1.49v-17.877a1.489,1.489,0,0,1,1.49-1.49h7.448a1.489,1.489,0,0,1,1.49,1.49v17.877A1.489,1.489,0,0,1,1735.134-308.4Zm-5.958-2.979h4.469v-14.9h-4.469Z" transform="translate(-1650.217 365.012)" fill="#27646a" stroke="#27646a" stroke-width="0.5"/><path d="M1492.891-350.675H1476.5a1.49,1.49,0,0,1-1.49-1.49v-13.728a2.662,2.662,0,0,0-2.659-2.66h-10.748a1.489,1.489,0,0,1-1.49-1.489v-14.9a1.489,1.489,0,0,1,1.49-1.489h10.748a2.662,2.662,0,0,0,2.659-2.66v-13.728a1.49,1.49,0,0,1,1.49-1.49h16.388a1.489,1.489,0,0,1,1.489,1.49v13.728a2.662,2.662,0,0,0,2.659,2.66h10.749a1.489,1.489,0,0,1,1.49,1.489v14.9a1.489,1.489,0,0,1-1.49,1.489H1497.04a2.663,2.663,0,0,0-2.659,2.66v13.728A1.489,1.489,0,0,1,1492.891-350.675Zm-14.9-2.98H1491.4v-12.238a5.645,5.645,0,0,1,5.639-5.639h9.259V-383.45h-9.259a5.646,5.646,0,0,1-5.639-5.639v-12.239h-13.408v12.239a5.645,5.645,0,0,1-5.638,5.639H1463.1v11.918h9.259a5.645,5.645,0,0,1,5.638,5.639Z" transform="translate(-1442.238 423.674)" fill="#27646a" stroke="#27646a" stroke-width="0.5"/><path d="M1685.022-319.93H1673.1a1.489,1.489,0,0,1-1.49-1.49v-26.815a1.489,1.489,0,0,1,1.49-1.49h11.918a1.489,1.489,0,0,1,1.49,1.49v26.815A1.49,1.49,0,0,1,1685.022-319.93Zm-10.428-2.98h8.938v-23.836h-8.938Z" transform="translate(-1607.554 381.011)" fill="#27646a" stroke="#27646a" stroke-width="0.5"/><path d="M1546.219-112.662h-16.388a1.489,1.489,0,0,1-1.49-1.49v-8.939a1.489,1.489,0,0,1,1.49-1.489h16.388a1.489,1.489,0,0,1,1.489,1.489v8.939A1.489,1.489,0,0,1,1546.219-112.662Zm-14.9-2.979h13.408V-121.6H1531.32Z" transform="translate(-1495.566 205.028)" fill="#27646a" stroke="#27646a" stroke-width="0.5"/><path d="M1534.689-158.932h-25.326a1.489,1.489,0,0,1-1.49-1.49V-170.85a1.49,1.49,0,0,1,1.49-1.49h25.326a1.49,1.49,0,0,1,1.489,1.49v10.428A1.489,1.489,0,0,1,1534.689-158.932Zm-23.836-2.979H1533.2v-7.449h-22.346Z" transform="translate(-1479.567 242.359)" fill="#27646a" stroke="#27646a" stroke-width="0.5"/><path d="M1387.182-308.4h-7.449a1.49,1.49,0,0,1-1.49-1.49v-17.877a1.49,1.49,0,0,1,1.49-1.49h7.449a1.489,1.489,0,0,1,1.49,1.49v17.877A1.489,1.489,0,0,1,1387.182-308.4Zm-5.959-2.979h4.469v-14.9h-4.469Z" transform="translate(-1378.243 365.012)" fill="#27646a" stroke="#27646a" stroke-width="0.5"/><path d="M1424.277-319.93h-10.429a1.489,1.489,0,0,1-1.489-1.49v-26.815a1.489,1.489,0,0,1,1.489-1.49h10.429a1.489,1.489,0,0,1,1.489,1.49v26.815A1.489,1.489,0,0,1,1424.277-319.93Zm-8.939-2.98h7.449v-23.836h-7.449Z" transform="translate(-1404.91 381.011)" fill="#27646a" stroke="#27646a" stroke-width="0.5"/><path d="M1546.219-481.082h-16.388a1.489,1.489,0,0,1-1.49-1.49v-8.938a1.489,1.489,0,0,1,1.49-1.49h16.388a1.489,1.489,0,0,1,1.489,1.49v8.938A1.489,1.489,0,0,1,1546.219-481.082Zm-14.9-2.979h13.408v-5.959H1531.32Z" transform="translate(-1495.566 493)" fill="#27646a" stroke="#27646a" stroke-width="0.5"/><path d="M1534.689-438.657h-25.326a1.489,1.489,0,0,1-1.49-1.489v-10.429a1.489,1.489,0,0,1,1.49-1.489h25.326a1.489,1.489,0,0,1,1.489,1.489v10.429A1.489,1.489,0,0,1,1534.689-438.657Zm-23.836-2.979H1533.2v-7.449h-22.346Z" transform="translate(-1479.567 461.003)" fill="#27646a" stroke="#27646a" stroke-width="0.5"/><path d="M1693.573-276.4a1.489,1.489,0,0,1-1.49-1.49v-8.939a1.489,1.489,0,0,1,1.49-1.489,1.49,1.49,0,0,1,1.49,1.489v8.939A1.49,1.49,0,0,1,1693.573-276.4Z" transform="translate(-1623.553 333.015)" fill="#27646a" stroke="#27646a" stroke-width="0.5"/><path d="M1535.79-421.795h-5.959a1.49,1.49,0,0,1-1.49-1.49,1.489,1.489,0,0,1,1.49-1.49h5.959a1.489,1.489,0,0,1,1.49,1.49A1.49,1.49,0,0,1,1535.79-421.795Z" transform="translate(-1495.566 439.673)" fill="#27646a" stroke="#27646a" stroke-width="0.5"/></g></svg>