<svg xmlns="http://www.w3.org/2000/svg" width="29.738" height="16.969" viewBox="0 0 29.738 16.969">
  <g id="vk-social-network-logo" transform="translate(0.001 0.001)">
    <path id="Path_5" data-name="Path 5" d="M29.581,133.072a2.04,2.04,0,0,0-.1-.194,15.413,15.413,0,0,0-2.957-3.422l-.031-.031-.015-.015-.016-.016h-.016q-.991-.945-1.254-1.27a1.192,1.192,0,0,1-.217-1.254,11.691,11.691,0,0,1,1.394-2.028q.635-.821,1.006-1.316,2.679-3.561,2.323-4.552l-.092-.154a.906.906,0,0,0-.48-.256,2.438,2.438,0,0,0-.991-.039l-4.459.031a.579.579,0,0,0-.31.008l-.2.047-.078.039-.062.047a.687.687,0,0,0-.17.162,1.062,1.062,0,0,0-.154.271,25.282,25.282,0,0,1-1.657,3.484q-.573.96-1.053,1.665a8.01,8.01,0,0,1-.8,1.037,5.619,5.619,0,0,1-.589.534q-.263.2-.4.17c-.093-.021-.181-.041-.264-.062a1.03,1.03,0,0,1-.348-.379,1.7,1.7,0,0,1-.178-.6q-.046-.364-.054-.627t.008-.743q.016-.48.016-.65,0-.589.023-1.277t.039-1.091q.016-.4.015-.852a3.578,3.578,0,0,0-.054-.7,2.41,2.41,0,0,0-.162-.5.834.834,0,0,0-.317-.372,1.789,1.789,0,0,0-.519-.209,10.3,10.3,0,0,0-2.091-.2,10.158,10.158,0,0,0-3.7.372,2.086,2.086,0,0,0-.588.464q-.279.341-.078.372a1.9,1.9,0,0,1,1.316.666l.093.186a2.962,2.962,0,0,1,.217.712,7.187,7.187,0,0,1,.139,1.13,12.053,12.053,0,0,1,0,1.936q-.078.805-.147,1.254a2.512,2.512,0,0,1-.209.728,3.07,3.07,0,0,1-.186.341.267.267,0,0,1-.077.077,1.16,1.16,0,0,1-.418.078.981.981,0,0,1-.526-.217,3.717,3.717,0,0,1-.642-.6,7.971,7.971,0,0,1-.751-1.061q-.418-.681-.867-1.61l-.248-.449Q7.4,121.7,7,120.87t-.712-1.6a1.021,1.021,0,0,0-.372-.5l-.077-.047a1.06,1.06,0,0,0-.248-.132,1.644,1.644,0,0,0-.356-.1l-4.243.031a1.078,1.078,0,0,0-.883.294l-.062.093a.5.5,0,0,0-.047.248,1.233,1.233,0,0,0,.093.418q.929,2.183,2.021,4.212t1.9,3.267q.805,1.239,1.641,2.338T6.758,130.8q.271.31.426.464l.387.372a9.186,9.186,0,0,0,1.092.89,18.618,18.618,0,0,0,1.595,1.022,8.652,8.652,0,0,0,2.036.82,7.04,7.04,0,0,0,2.261.256h1.781a1.233,1.233,0,0,0,.821-.341l.062-.078a1.026,1.026,0,0,0,.116-.286,1.573,1.573,0,0,0,.054-.426,5.1,5.1,0,0,1,.1-1.2,3.155,3.155,0,0,1,.264-.805,1.979,1.979,0,0,1,.333-.457,1.345,1.345,0,0,1,.264-.225,1.007,1.007,0,0,1,.123-.054.983.983,0,0,1,.875.24,5.139,5.139,0,0,1,.945.9q.441.534,1.061,1.2a7.289,7.289,0,0,0,1.084.991l.31.186a3.77,3.77,0,0,0,.806.341,1.736,1.736,0,0,0,.867.077l3.964-.062a1.8,1.8,0,0,0,.913-.194.767.767,0,0,0,.387-.426,1.2,1.2,0,0,0,.008-.527A1.944,1.944,0,0,0,29.581,133.072Z" transform="translate(0 -117.748)" fill="#fa7920"/>
  </g>
</svg>
